<?xml version="1.0" encoding="UTF-8" standalone="no"?>
<!-- Created with Inkscape (http://www.inkscape.org/) -->

<svg
   xmlns:dc="http://purl.org/dc/elements/1.1/"
   xmlns:cc="http://creativecommons.org/ns#"
   xmlns:rdf="http://www.w3.org/1999/02/22-rdf-syntax-ns#"
   xmlns:svg="http://www.w3.org/2000/svg"
   xmlns="http://www.w3.org/2000/svg"
   xmlns:sodipodi="http://sodipodi.sourceforge.net/DTD/sodipodi-0.dtd"
   xmlns:inkscape="http://www.inkscape.org/namespaces/inkscape"
   width="297mm"
   height="210mm"
   viewBox="0 0 1052.3622 744.09448"
   id="svg2"
   version="1.1"
   inkscape:version="0.91 r13725"
   sodipodi:docname="gravure-chibi-full-metal-like-cats-anime-7.svg">
  <title
     id="title3349">Chibi Ed Like Cats</title>
  <defs
     id="defs4" />
  <sodipodi:namedview
     id="base"
     pagecolor="#ffffff"
     bordercolor="#666666"
     borderopacity="1.0"
     inkscape:pageopacity="0.0"
     inkscape:pageshadow="2"
     inkscape:zoom="0.35"
     inkscape:cx="800.30561"
     inkscape:cy="60"
     inkscape:document-units="px"
     inkscape:current-layer="layer1"
     showgrid="false"
     inkscape:window-width="1538"
     inkscape:window-height="877"
     inkscape:window-x="-8"
     inkscape:window-y="-8"
     inkscape:window-maximized="1" />
  <metadata
     id="metadata7">
    <rdf:RDF>
      <cc:Work
         rdf:about="">
        <dc:format>image/svg+xml</dc:format>
        <dc:type
           rdf:resource="http://purl.org/dc/dcmitype/StillImage" />
        <dc:title>Chibi Ed Like Cats</dc:title>
      </cc:Work>
    </rdf:RDF>
  </metadata>
  <g
     inkscape:label="Calque 1"
     inkscape:groupmode="layer"
     id="layer1"
     transform="translate(0,-308.26772)">
    <path
       style="fill:#000000"
       d="m 357.40759,1044.2467 c -29.91349,-1.6237 -53.91636,-5.2859 -74.03309,-11.2951 -6.17543,-1.8447 -11.51313,-3.5223 -11.86154,-3.728 -0.34841,-0.2057 0.1407,-3.8413 1.08691,-8.0792 l 1.72038,-7.7053 -3.99838,-2.1704 c -5.75221,-3.1224 -10.91673,-4.1818 -21.58107,-4.4268 -8.62141,-0.1983 -12.56482,0.093 -21.85013,1.6119 -4.52301,0.7399 -5.33909,1.0851 -10.43121,4.4121 l -5.52433,3.6094 -37.25405,-0.2716 c -20.48973,-0.1494 -50.86181,-0.6757 -67.49351,-1.1694 l -30.239458,-0.8978 -29.464071,-6.0497 c -16.205248,-3.3273 -29.701904,-6.1762 -29.992587,-6.3307 -1.382729,-0.7354 -2.259324,-9.88164 -1.424227,-14.86027 0.470827,-2.80695 1.665075,-12.01635 2.653874,-20.46541 l 1.797814,-15.36193 8.418865,-6.60945 c 4.630379,-3.63526 11.119209,-8.16851 14.41962,-10.07394 5.889889,-3.40039 13.105617,-6.23346 14.541782,-5.70945 1.160222,0.42332 11.512982,-0.66111 18.273558,-1.91412 8.436936,-1.56368 14.391918,-3.40716 17.280934,-5.34967 2.484003,-1.67015 2.686358,-2.05785 4.321885,-8.2802 l 0.962514,-3.66189 -4.618981,-3.84514 -4.61897,-3.84513 -1.017086,-6.22509 c -1.581293,-9.67837 -1.855041,-8.90223 4.576325,-12.97508 l 5.599127,-3.54587 27.525662,-0.89144 c 15.1391,-0.49029 32.59946,-1.02524 38.80078,-1.1888 l 11.27512,-0.29734 7.72145,-16.77759 7.72145,-16.77764 14.9519,-16.2511 c 16.21384,-17.62272 14.82829,-16.48565 29.84253,-24.49038 l 6.00996,-3.20417 -2.78955,-4.31536 c -4.62419,-7.15344 -5.93336,-10.68731 -6.03225,-16.28282 -0.0784,-4.43594 0.12963,-5.29667 1.74799,-7.233 1.01034,-1.20883 2.92407,-2.67328 4.25273,-3.25435 1.32867,-0.58105 8.82448,-2.77742 16.65738,-4.8808 8.27509,-2.22214 14.65998,-4.21469 15.24023,-4.75607 0.54926,-0.51244 2.96747,-3.67182 5.37383,-7.02083 2.40637,-3.34903 5.96016,-7.67176 7.89734,-9.60608 l 3.52213,-3.51697 -13.76653,-31.13256 c -12.22608,-27.64887 -14.90637,-33.00959 -16.12441,-32.24966 -0.17773,0.1109 -0.74125,8.23491 -1.25227,18.05339 -0.51101,9.81847 -1.16232,19.08765 -1.44735,20.59818 l -0.51824,2.74643 -20.72875,-32.72824 -20.72875,-32.72823 -6.6385,-18.30951 c -8.84472,-24.39447 -10.43254,-31.37917 -11.18603,-49.20679 -0.47619,-11.26694 -0.31185,-16.87586 0.8517,-29.06633 1.5769,-16.52091 1.75781,-20.83049 0.87402,-20.82049 -0.31983,0.003 -12.59017,9.99374 -27.26743,22.20028 -14.67726,12.20653 -26.9439,22.19369 -27.25922,22.19369 -0.31532,0 -0.44262,-0.36047 -0.28286,-0.80104 0.15974,-0.44057 2.06606,-10.89416 4.23626,-23.23018 l 3.94581,-22.42915 6.65336,-11.21457 c 3.65935,-6.16801 10.638,-17.18432 15.50809,-24.48069 l 8.85472,-13.26613 24.57303,-25.9901 24.57301,-25.99011 15.72652,-9.95055 15.72654,-9.95056 6.31441,-1.43717 6.31439,-1.43717 -3.26423,-0.9831 c -8.37005,-2.52083 -25.97521,-5.84287 -47.40239,-8.94471 -10.90921,-1.57923 -12.24362,-1.66194 -45.74685,-2.83548 -18.98043,-0.66484 -34.76076,-1.33593 -35.06738,-1.49131 -0.30664,-0.15538 12.77773,-2.4731 29.07638,-5.15047 l 29.63391,-4.86797 42.97268,0.2475 42.9727,0.2475 15.18009,3.50202 c 13.95719,3.21989 16.13942,3.88395 27.08843,8.24309 l 11.90833,4.74108 14.06658,-3.58828 c 7.73661,-1.97355 15.81115,-4.0557 17.94342,-4.62698 2.32737,-0.62355 6.96468,-2.75092 11.60263,-5.32271 l 7.72577,-4.28402 -7.92699,-2.64965 c -4.35985,-1.45731 -8.11872,-2.8328 -8.35306,-3.05663 -0.23549,-0.22495 2.45578,-0.40821 6.01649,-0.40973 3.54342,-0.001 9.28707,-0.13349 12.76366,-0.29327 l 6.32111,-0.29052 0.54065,-2.5676 c 0.90683,-4.30646 3.96925,-10.71714 6.6009,-13.81785 1.3722,-1.61679 4.05112,-3.80308 5.95315,-4.85845 l 3.45823,-1.91883 -1.61011,-3.46469 c -1.17616,-2.53091 -1.61011,-4.82034 -1.61011,-8.49469 0,-2.76651 0.0872,-5.04492 0.19384,-5.06316 0.10667,-0.0183 6.64881,-0.19762 14.53821,-0.39864 14.17554,-0.36119 14.4128,-0.38427 20.15964,-1.96119 13.77045,-3.77858 26.88982,-5.73848 41.09462,-6.13909 16.43274,-0.46345 29.99464,1.54651 42.21719,6.25687 3.21148,1.23764 6.27895,2.15284 6.81662,2.03377 0.53768,-0.11908 6.73472,-0.38646 13.77121,-0.59421 13.42669,-0.3964 25.24562,-0.0754 28.94053,0.7861 l 2.19024,0.51065 -2.79805,1.92978 c -5.91973,4.08276 -8.47491,9.05099 -7.20564,14.01041 0.61318,2.39585 3.83067,6.63642 6.56393,8.65107 0.76196,0.56164 7.59206,3.08289 15.178,5.60278 16.05232,5.33226 28.92461,10.01023 33.95552,12.33993 6.74631,3.12405 19.29524,12.21215 36.38729,26.35217 l 17.15231,14.18986 11.75683,2.8796 c 13.52164,3.31186 31.31019,7.01144 40.03891,8.32711 9.89621,1.49163 16.18501,1.85976 23.44806,1.37255 7.70113,-0.51659 20.08388,0.0519 25.63569,1.17703 10.2635,2.07994 9.97467,7.90707 -0.6956,14.03022 l -3.75216,2.15321 -17.96192,1.10523 -17.96185,1.10525 -21.94112,-1.52067 c -12.0676,-0.83636 -22.07801,-1.43983 -22.24534,-1.34105 -0.16733,0.0988 1.25246,1.3766 3.15507,2.8396 1.9026,1.46299 6.59893,5.44073 10.43626,8.83944 17.14908,15.18881 24.1922,24.34157 23.07117,29.98181 -0.31837,1.60173 0.14104,3.90069 1.53065,7.65933 2.67263,7.22926 2.60998,14.28728 -0.32828,36.97008 -2.08257,16.07727 -2.47871,17.98421 -4.51686,21.74253 -1.32023,2.43448 -2.44062,5.73532 -2.73895,8.06941 -0.44817,3.50636 -0.24192,4.53408 1.8372,9.15475 1.92409,4.27607 5.37612,19.39136 5.40255,23.65594 0.008,1.05966 -1.22392,0.21674 -8.92789,-6.1159 -4.15844,-3.41821 -7.81194,-6.0471 -8.11888,-5.84196 -0.53244,0.35582 -6.21211,16.69881 -6.2111,17.87213 6.2e-4,0.7296 3.76477,1.84405 15.8115,4.68131 8.53259,2.00961 10.65136,2.73377 16.37896,5.59795 3.61818,1.80937 6.57855,3.52921 6.57855,3.82187 0,0.29264 -3.64363,5.45191 -8.09689,11.46504 l -8.0968,10.93295 2.47537,0.54887 c 1.36147,0.30187 8.19977,0.73839 15.19609,0.97006 l 12.72066,0.42119 2.18437,1.55488 c 1.20144,0.85518 2.19375,1.82436 2.20523,2.15375 0.0116,0.32938 -1.74807,3.98045 -3.91011,8.11346 l -3.93106,7.5146 2.05209,1.58829 c 1.68482,1.30399 2.83957,1.67847 6.45102,2.09201 17.73326,2.03066 33.12475,5.11156 42.39197,8.4856 7.4745,2.72131 9.50675,4.09117 10.45673,7.04827 1.07466,3.34541 1.14778,3.23771 -2.19833,3.23771 -1.64145,0 -5.57848,0.12945 -8.74889,0.28767 l -5.76449,0.28765 1.94292,2.31762 c 1.5212,1.81456 1.94208,3.0189 1.93905,5.5485 -0.008,5.84716 -5.85886,11.37459 -18.65061,17.61632 -8.50682,4.15094 -17.46329,7.41137 -25.70701,9.35814 l -6.06379,1.43199 2.51072,12.3589 c 1.38085,6.79741 3.5757,15.55164 4.87748,19.45385 2.11877,6.35154 2.5905,7.20259 4.50226,8.12241 2.56384,1.23359 2.19158,1.6209 5.69502,-5.92611 1.36759,-2.94602 3.56856,-6.65369 4.89103,-8.23928 2.00907,-2.40867 2.97851,-3.04787 5.89375,-3.88579 1.91904,-0.5516 3.8549,-1.01505 4.30199,-1.02991 0.44707,-0.0149 6.13124,2.71812 12.63148,6.07327 l 11.81859,6.1003 5.96136,0.54714 c 25.08284,2.30208 51.55546,7.82092 67.14459,13.99787 3.46839,1.37432 8.80434,3.95207 11.85759,5.72832 5.44674,3.16874 5.62942,3.23026 9.69212,3.26302 9.42138,0.0761 11.41253,0.48718 19.45428,4.01706 7.04075,3.09051 7.55986,3.42791 7.55986,4.91318 0,2.61835 -3.58453,6.08525 -10.37282,10.03246 l -6.29764,3.6619 -0.10239,4.34851 c -0.22516,9.5647 -5.23593,15.27832 -19.31107,22.01992 -2.75589,1.32002 -5.01067,2.52264 -5.01067,2.6725 0,0.14991 2.44032,1.16151 5.42293,2.24804 8.54405,3.11248 8.40844,3.53662 -0.82382,2.57743 -3.59563,-0.37355 -6.98299,-0.67946 -7.52753,-0.67978 -0.63697,-4.1e-4 -0.0388,1.10095 1.67828,3.08909 1.46755,1.69935 5.48536,7.20936 8.92855,12.24447 5.90018,8.62817 7.59281,11.96362 12.54294,24.71783 0.97712,2.51756 2.04194,4.76195 2.36627,4.98752 0.32434,0.22557 3.10064,-1.01033 6.16955,-2.74643 15.11879,-8.55292 30.25294,-21.64417 39.89708,-34.51158 1.9813,-2.64343 3.65649,-4.83143 3.72263,-4.86219 0.0659,-0.0307 4.13279,0.28092 9.03701,0.69252 l 8.91676,0.74845 1.43436,1.59617 c 1.43118,1.59256 1.42661,1.62249 -2.04845,13.28094 l -3.48281,11.6847 -6.63949,7.31818 -6.63951,7.31817 -20.88405,13.93454 c -11.62296,7.75531 -20.71341,14.197 -20.49933,14.52639 0.30806,0.47385 8.75898,0.59181 42.39718,0.59181 l 42.01241,0 12.1064,7.20936 12.1063,7.20937 0.6557,3.66191 c 0.3606,2.01404 0.566,11.32602 0.4562,20.69327 l -0.1995,17.0313 -4.6451,19.77759 c -2.5548,10.8776 -4.7818,19.85826 -4.9489,19.95696 -0.1671,0.098 -10.3736,1.7076 -22.6811,3.5756 l -22.37715,3.3963 -71.72178,3.0726 c -70.58537,3.0237 -72.16946,3.0714 -99.97874,3.0028 l -28.25698,-0.069 -5.78822,1.8862 -5.78822,1.8863 -34.1874,-0.5531 c -38.90251,-0.6294 -68.77015,-1.2719 -84.58649,-1.8197 -5.97035,-0.2068 -16.26339,-0.2354 -22.87342,-0.064 -11.14398,0.2896 -12.75151,0.4488 -22.09806,2.1878 l -10.07981,1.8754 -18.60889,0.4872 c -10.2349,0.268 -19.17313,0.4875 -19.86275,0.4877 -0.68963,3e-4 -2.17748,-0.8234 -3.30633,-1.8303 -1.8898,-1.6859 -2.3293,-1.831 -5.54541,-1.831 -3.22344,0 -3.46219,0.079 -3.09452,1.0299 0.65664,1.6975 3.39155,11.0932 3.25076,11.1679 -0.0717,0.038 -5.88759,1.9191 -12.92408,4.18 l -12.79361,4.1106 -29.07639,-0.8688 -29.07639,-0.8688 -11.24288,1.5995 c -13.93619,1.9825 -29.71735,3.6616 -43.42075,4.6198 -12.39095,0.8664 -47.3109,1.2459 -58.54047,0.6364 z m 54.64334,-6.8381 c 26.48043,-1.5739 32.67357,-2.09 44.28552,-3.6908 13.4236,-1.8505 13.68601,-1.8672 46.45311,-2.9706 18.12428,-0.6103 33.98991,-1.1638 35.25695,-1.2299 l 2.3037,-0.1203 1.74588,-6.1794 1.74588,-6.1796 -2.83237,-5.4928 -2.83236,-5.4928 2.45105,-5.5444 2.45104,-5.5444 -1.20913,-5.22268 -1.20914,-5.22268 9.15339,-9.83614 9.15337,-9.83603 17.06513,-4.58527 17.06513,-4.58516 0.93745,-4.56454 c 0.51559,-2.51057 0.95672,-5.20025 0.98028,-5.97726 0.0419,-1.3811 -0.899,-1.75086 -42.23687,-16.60059 l -42.2797,-15.18801 -19.55609,5.66108 -19.5561,5.66106 -16.89568,10.8292 c -14.08014,9.02463 -17.18117,10.79204 -18.60889,10.60609 -5.52283,-0.71944 -23.10347,-2.02973 -24.12587,-1.79807 -0.8469,0.19183 -1.45951,-0.12005 -2.02361,-1.03013 -0.44495,-0.71795 -7.1646,-9.47234 -14.93255,-19.45427 l -14.12355,-18.14893 -11.75711,-3.5936 c -6.4664,-1.97647 -11.90963,-3.49062 -12.09607,-3.36474 -0.18644,0.12587 -2.83875,5.82191 -5.89403,12.65781 l -5.55506,12.42895 1.20687,9.48277 c 0.66379,5.21556 1.03454,9.58454 0.8239,9.70886 -0.21062,0.12443 -2.58222,0.6842 -5.27021,1.24407 -2.68797,0.55999 -7.3697,1.76101 -10.40381,2.66907 -17.94748,5.37135 -38.21987,18.56813 -50.11227,32.62148 l -2.69251,3.18184 -0.52347,10.39099 -0.52346,10.39103 3.99212,4.7144 c 2.19568,2.5928 4.09178,4.7796 4.21358,4.8594 0.1218,0.08 19.8126,2.2966 43.75734,4.9262 l 43.53588,4.781 38.6661,-1.3787 c 23.74689,-0.8467 45.69976,-1.3787 56.89521,-1.3787 l 18.22909,0 16.13272,-2.96 c 8.98314,-1.6481 16.42777,-2.7858 16.79844,-2.5669 0.37068,0.2188 -0.48272,0.6064 -1.92564,0.8745 -1.42524,0.2649 -8.80037,1.626 -16.38919,3.0247 l -13.79784,2.5432 -18.7238,0 c -11.76469,0 -33.14933,0.5144 -57.53625,1.3843 l -38.81244,1.3843 -43.42074,-4.7772 c -23.88141,-2.6276 -43.65059,-4.6409 -43.9315,-4.4741 -0.28092,0.1667 -0.62983,2.7634 -0.77537,5.7702 l -0.26462,5.467 6.20297,2.2802 6.20296,2.2802 39.15621,4.4464 c 21.53591,2.4454 40.51165,4.4693 42.1683,4.4973 1.65664,0.028 16.86563,-0.7725 33.79773,-1.7789 z m 372.60339,-25.7305 c 0.11507,-0.073 0.62037,-5.2824 1.12282,-11.5763 1.09544,-13.72226 0.66953,-48.69442 -0.75258,-61.79457 -1.09134,-10.05352 -1.0873,-10.04606 -6.90948,-12.7381 -3.75357,-1.73552 -7.29608,-1.65253 -10.2925,0.24113 -2.26223,1.42966 -2.30549,1.54514 -1.84136,4.92068 2.1225,15.43678 2.07141,19.07511 -0.70488,50.14587 -1.48468,16.61583 -2.82623,31.15839 -2.9813,32.31659 l -0.28185,2.106 11.2159,-1.7443 c 6.16876,-0.9592 11.31008,-1.8039 11.42523,-1.877 z m -170.21142,0.6667 10.4675,-2.2651 24.81186,1.0011 c 13.64651,0.5506 24.84944,0.9833 24.89537,0.9616 0.046,-0.021 -0.23337,-13.53126 -0.62068,-30.02127 l -0.70419,-29.98178 2.45169,-15.79193 c 1.34845,-8.68558 2.72314,-15.96484 3.05487,-16.17618 0.33173,-0.21129 4.35352,0.38028 8.93729,1.31462 l 8.33414,1.69884 29.44515,-0.48927 c 16.19484,-0.2691 29.5761,-0.56654 29.73606,-0.66102 0.16004,-0.0944 -0.78986,-2.07414 -2.11079,-4.39932 -1.32092,-2.32516 -2.24493,-4.32012 -2.05326,-4.43328 0.1916,-0.11315 3.81815,1.87001 8.05897,4.40701 l 7.71052,4.61267 10.25559,-0.37525 10.25559,-0.3753 -8.97855,-3.8141 -8.97864,-3.81406 0.33131,-16.09753 c 0.29589,-14.37955 0.50679,-16.53713 1.97642,-20.21711 0.90486,-2.26581 2.17724,-5.66452 2.82755,-7.55268 1.49887,-4.35213 3.81009,-8.59265 6.67842,-12.25313 l 2.24857,-2.86955 0,-12.8482 0,-12.84819 -10.23202,-6.30259 -10.23194,-6.30259 -1.45413,1.73502 c -1.9306,2.30355 -9.51636,7.1433 -16.36062,10.4381 -4.96137,2.38838 -20.25174,8.73107 -24.08488,9.99082 -1.43755,0.47247 -1.40999,0.55308 0.69362,2.0296 1.21422,0.85226 4.01173,1.97541 6.27633,2.51985 11.0554,2.6578 22.43451,8.47501 26.78635,13.69363 2.12126,2.54369 2.56299,3.59704 2.55849,6.10055 0,1.66424 -0.37938,3.417 -0.83647,3.89498 -0.89703,0.93808 -0.38396,1.2899 -24.62824,-16.88988 -10.00171,-7.49989 -11.17222,-8.00588 -18.80911,-8.1313 -2.97685,-0.0489 -4.45163,0.15994 -5.64956,0.79995 -0.99541,0.53179 -3.43368,0.99227 -6.31727,1.19299 -3.60382,0.25085 -5.21324,0.61932 -6.91918,1.58418 -2.6788,1.51512 -4.22743,5.2509 -3.47592,8.38512 0.27953,1.16581 5.73626,14.35085 12.12609,29.3001 l 11.61786,27.1805 4.67875,3.88643 c 6.10342,5.06985 6.22766,5.28092 2.91767,4.95693 -1.44313,-0.14126 -5.58967,-0.47495 -9.21453,-0.74154 -3.62486,-0.26658 -18.04959,-1.41688 -32.05495,-2.55624 -14.00537,-1.13934 -25.61328,-1.98364 -25.79534,-1.87617 -0.18207,0.10753 -4.46612,5.839 -9.52009,12.73664 l -9.18906,12.54124 -2.11389,15.6238 c -1.16265,8.59314 -1.98761,16.00854 -1.83326,16.47859 0.19504,0.59394 1.56631,-0.38226 4.4954,-3.20032 2.31812,-2.2302 4.62516,-4.148 5.12675,-4.26164 1.41521,-0.32053 6.14101,0.53178 6.14101,1.10757 0,0.28293 -5.71749,4.45806 -12.70552,9.27808 -12.9157,8.90864 -14.27734,9.67647 -51.86686,29.24791 -6.94242,3.6147 -12.75982,6.4911 -12.92755,6.3921 -0.16776,-0.099 -0.52284,-1.4147 -0.78909,-2.9237 l -0.48408,-2.7436 24.44234,-12.13011 24.44233,-12.13 0.0183,-8.9 0.0183,-8.89999 7.36603,-16.58955 c 4.0513,-9.12437 7.36602,-16.70916 7.36602,-16.85519 0,-0.14601 -9.4859,-0.21069 -21.07976,-0.14373 l -21.07978,0.12181 -1.38826,3.20417 c -0.76356,1.76229 -1.39624,3.51991 -1.40598,3.90582 -0.0101,0.38592 3.25123,2.07341 7.24662,3.74997 l 7.26432,3.04839 0.56439,6.46664 c 0.31041,3.55673 0.44339,6.53371 0.29553,6.61563 -0.14787,0.0822 -8.81731,3.46413 -19.26543,7.51622 -15.66772,6.07648 -19.48789,7.36819 -21.8003,7.37182 l -2.80374,0 -6.34398,8.31854 -6.34398,8.31865 3.08981,4.51264 3.08981,4.51253 -1.78264,5.36384 c -0.98047,2.9502 -2.44141,6.4768 -3.24655,7.8371 -0.8833,1.4923 -1.15638,2.5369 -0.68852,2.634 0.42645,0.089 2.34549,0.7912 4.26453,1.5616 l 3.48918,1.4007 24.42416,-0.2137 24.42417,-0.2138 10.46751,-2.265 z m 148.62061,-24.37301 c 1.36015,-14.72772 2.4963,-29.09497 2.52484,-31.92724 l 0.0518,-5.14952 -25.46154,0 -25.46148,0 -0.5134,16.55335 c -0.28238,9.10442 -0.5134,22.59619 -0.5134,29.98178 0,7.38574 -0.13051,13.42844 -0.29003,13.42844 -0.15951,0 -1.90409,-0.5325 -3.87685,-1.1834 l -3.58683,-1.1835 0,-28.76336 0,-28.76335 -11.66681,-3.58247 c -6.41673,-1.97034 -11.03988,-3.63587 -10.27365,-3.70123 0.76623,-0.0652 5.40021,0.5902 10.29772,1.45672 4.8975,0.86651 8.98429,1.52838 9.08174,1.47092 0.0974,-0.0577 0.60905,-2.92743 1.13689,-6.37742 0.52783,-3.45006 1.18151,-6.27279 1.4526,-6.27279 0.27111,0 2.33852,2.67777 4.59425,5.95059 l 4.10135,5.95059 5.91161,0.0128 c 3.25139,0.0107 13.58779,0.31134 22.96977,0.67661 9.38198,0.36517 18.24463,0.6685 19.6948,0.67405 l 2.63673,0.0107 -0.54354,-7.66712 c -0.29899,-4.2169 -0.73745,-8.12864 -0.97433,-8.69276 l -0.4308,-1.02561 -28.02498,0.28527 -28.02492,0.2853 -12.77025,-3.03599 c -7.02364,-1.66964 -12.98532,-3.03585 -13.2482,-3.03585 -0.26287,0 -0.71162,16.11809 -0.99724,35.81791 l -0.51929,35.81806 2.10183,9.38363 2.10182,9.3836 38.02337,0 38.02339,0 2.47304,-26.77764 z m 116.55609,20.61501 c 31.62992,-2.6979 34.11157,-2.8418 61.79718,-3.5881 16.49639,-0.4445 29.13618,-0.9732 29.52665,-1.235 0.67225,-0.4507 7.95049,-56.27362 8.32539,-63.85439 0.10577,-2.13992 0.44653,-6.48564 0.75707,-9.65712 l 0.56478,-5.76639 -8.7199,-4.03867 c -9.8907,-4.58085 -9.39229,-4.48537 -26.25048,-5.02948 l -10.37328,-0.33483 -2.90198,-1.54775 c -1.5961,-0.85126 -3.08357,-1.54775 -3.30549,-1.54775 -0.22191,0 -0.61541,0.49847 -0.87446,1.10772 -0.77964,1.83388 -7.19366,5.19322 -13.13408,6.87906 -4.55909,1.2938 -13.94636,2.97947 -22.61779,4.06147 -4.20941,0.52521 18.40358,-0.31881 27.52566,-1.02739 5.75712,-0.44726 11.33979,-0.81047 12.40592,-0.80718 1.06614,0.004 7.43386,-0.1603 14.15051,-0.36354 l 12.21209,-0.36952 -0.0116,2.01129 c -0.008,1.10626 -0.2682,2.24406 -0.58152,2.52845 -0.31334,0.28444 -2.66317,0.64958 -5.2219,0.81143 -10.68313,0.6758 -122.40749,3.01997 -143.93356,3.01997 l -23.35734,0 0.56401,6.9805 c 0.31014,3.83927 0.61657,7.00077 0.68077,7.02555 0.0644,0.0246 40.76564,-0.51053 90.44751,-1.18939 49.68186,-0.67892 90.45705,-1.17388 90.61149,-1.09986 0.15446,0.074 -0.0317,0.91819 -0.41459,1.87591 l -0.69543,1.74146 -5.40068,0.32223 c -2.97037,0.17719 -41.68803,0.85744 -86.03922,1.51184 -44.35119,0.65429 -82.08265,1.29095 -83.84763,1.41474 l -3.2091,0.22504 -0.47274,27.55837 c -0.26007,15.15697 -0.68544,29.38763 -0.94533,31.62373 l -0.4726,4.0654 30.12935,-0.2485 30.12934,-0.2485 32.95324,-2.8108 z m -58.21459,-31.02298 -5.10162,-0.15829 -3.27803,-3.63192 -3.27796,-3.63181 3.29307,-3.58727 3.29309,-3.58717 10.4502,-0.78705 c 7.01944,-0.52869 10.7067,-0.63571 11.23148,-0.32586 0.42971,0.25366 1.681,1.44475 2.78071,2.64685 l 1.99945,2.18566 40.77308,0.11845 40.77309,0.11845 0.8733,-1.72053 c 1.31387,-2.58843 5.19592,-5.92856 7.82256,-6.73034 3.26067,-0.99543 8.09207,-0.8866 11.93799,0.26883 1.79545,0.53947 5.50738,2.32942 8.2487,3.97786 4.7348,2.84711 5.14909,2.99108 8.27848,2.87744 3.94795,-0.14322 4.9585,0.6309 4.9585,3.79896 0,1.64342 -0.44964,2.36393 -2.13227,3.4166 l -2.13228,1.334 -60.42454,0.50701 -60.42462,0.507 -4.11326,1.37042 c -3.02821,1.00889 -4.98564,1.34671 -7.42038,1.28071 -1.81885,-0.0491 -5.60282,-0.16085 -8.40874,-0.248 z m 15.00218,-1.93105 4.06179,-1.35322 60.4761,-0.52068 60.4761,-0.52067 1.74459,-1.12691 c 1.15732,-0.74753 1.74055,-1.69607 1.73272,-2.81785 -0.0179,-2.50693 -0.84888,-3.01746 -4.37116,-2.68498 -2.89639,0.27342 -3.15653,0.18168 -8.28297,-2.91888 -10.89558,-6.59001 -18.06853,-6.72191 -23.69439,-0.43566 -3.40008,3.79917 -3.64198,3.66193 6.45636,3.66193 5.4624,0 8.96902,0.1789 8.96902,0.45766 0,0.30055 -17.52663,0.45777 -51.02914,0.45777 l -51.02915,0 -2.59858,-2.72739 -2.59857,-2.72738 -3.55586,0.27502 c -1.95571,0.15113 -6.28608,0.50306 -9.62305,0.78193 l -6.06711,0.50711 -2.84964,3.09768 -2.84957,3.09778 2.75381,3.08166 c 2.65983,2.97667 2.87135,3.09116 6.20296,3.35625 8.26886,0.65825 11.44819,0.46738 15.67574,-0.94117 z m -630.32733,33.69473 c 1.77758,-0.8421 7.53632,-3.3516 12.7972,-5.5767 l 9.56524,-4.04558 17.96042,1.24378 c 9.87822,0.6842 18.5193,1.2368 19.20238,1.2282 0.9957,-0.013 1.3396,-0.7645 1.73427,-3.79188 0.27077,-2.07704 1.25916,-8.49904 2.19644,-14.27123 l 1.70413,-10.49492 15.76038,-10.29626 15.76037,-10.29636 16.85595,-6.62076 c 9.27077,-3.64143 16.97571,-6.68067 17.1221,-6.75391 0.3298,-0.16493 -1.40821,-10.24114 -1.92944,-11.18601 -0.21467,-0.38912 -0.97685,0.35506 -1.75917,1.71757 -0.75921,1.32232 -2.01118,2.81568 -2.78215,3.3186 -2.74803,1.79264 -8.71926,0.83198 -12.36421,-1.98915 -3.77037,-2.91821 -2.14053,-5.27862 4.85467,-7.03076 l 3.34401,-0.83761 -57.09833,-16.471 c -31.40409,-9.05904 -57.33305,-16.5209 -57.61993,-16.58182 -0.28689,-0.061 -4.00671,5.51615 -8.26625,12.39357 l -7.74465,12.50438 -12.64255,3.12672 c -7.32504,1.81158 -12.90996,2.95218 -13.27829,2.71177 -0.34965,-0.22822 -2.2777,-4.15777 -4.28453,-8.73231 l -3.64879,-8.31732 5.50405,-9.49911 c 3.1843,-5.49559 5.18852,-9.61423 4.7554,-9.77223 -0.41177,-0.15028 -8.43523,-0.86183 -17.82992,-1.58126 l -17.08126,-1.30812 -19.21676,1.95815 c -10.56924,1.07697 -19.37352,2.03684 -19.565084,2.13301 -0.191565,0.0961 -0.798551,2.77202 -1.34885,5.94629 l -1.000557,5.77143 4.581241,8.35115 4.58125,8.35115 -3.33261,5.65965 -3.332601,5.6597 -21.157714,4.64181 -21.157703,4.64183 -11.83813,5.88266 c -9.383585,4.66294 -11.924185,6.16815 -12.25317,7.25938 -1.469358,4.87385 -8.298548,35.12425 -7.972905,35.3165 0.219964,0.12987 29.27092,2.7952 64.557672,5.92289 l 64.157741,5.68675 40.00187,-2.28318 c 29.20284,-1.6668 42.09507,-2.58533 47.75555,-3.40239 4.26455,-0.61574 8.04886,-0.94961 8.40959,-0.74209 0.36074,0.20742 -4.00072,1.01198 -9.69212,1.78761 -8.51877,1.16118 -17.13275,1.77702 -48.72885,3.48388 l -38.38083,2.07331 -64.322199,-5.70651 c -35.377207,-3.13858 -64.369135,-5.66325 -64.426498,-5.61038 -0.207812,0.19139 2.000192,13.76636 2.264523,13.92241 0.556735,0.32874 29.667922,4.7729 32.276653,4.9275 1.492582,0.089 9.935774,1.3158 18.762635,2.7275 l 16.048835,2.5667 44.430061,0.8448 c 24.43654,0.4646 49.25618,0.8729 55.15475,0.907 l 10.72471,0.062 3.23196,-1.5311 z m 789.506,-4.5242 c 0.2972,-0.1756 1.82042,-13.3551 3.38496,-29.28801 2.69858,-27.48243 2.80278,-29.54986 2.03168,-40.29468 l -0.8128,-11.32589 -4.01207,-2.36618 c -3.53344,-2.08389 -5.19847,-2.63052 -13.95667,-4.58177 l -9.94459,-2.21554 -1.74071,1.26005 c -0.95743,0.69302 -1.74249,1.37761 -1.74458,1.5213 0,0.14368 2.98409,1.58556 6.63609,3.20416 l 6.63988,2.94289 -0.48244,8.0104 c -0.26533,4.40573 -1.51693,16.24972 -2.78125,26.31987 -1.26432,10.07026 -3.08404,24.54144 -4.04378,32.15816 -1.73808,13.79354 -1.73886,13.84964 -0.2037,14.13734 5.00525,0.9378 19.70543,1.2998 21.02998,0.5179 z m 15.26524,-3.0238 c 5.8637,-0.9088 10.6763,-1.86408 10.6945,-2.12277 0.019,-0.25879 2.2301,-17.25794 4.9153,-37.77601 l 4.8822,-37.30562 -8.5128,-4.80625 c -4.6821,-2.64343 -9.2492,-5.05643 -10.1491,-5.36221 -0.9,-0.30577 -4.2664,-0.56324 -7.4811,-0.57216 -4.5577,-0.0128 -6.6068,0.2106 -9.30447,1.0137 -1.90276,0.56645 -3.56167,1.35746 -3.6865,1.7578 -0.12476,0.40034 1.99914,2.14249 4.71968,3.87141 l 4.94659,3.14351 4.7764,-0.85377 c 4.6129,-0.82452 4.8296,-0.82535 6.3294,-0.0242 0.8541,0.45632 1.5529,1.00369 1.5529,1.21644 0,0.21271 -2.5297,0.38995 -5.6215,0.39379 -3.0918,0.004 -6.0448,0.16588 -6.5624,0.36001 -0.7206,0.27034 -0.7724,1.79652 -0.2212,6.51575 0.3959,3.38951 0.7321,7.84527 0.7471,9.90165 0.04,5.55125 0.12,5.58628 5.9923,2.64529 l 5.0361,-2.52225 3.1073,2.56177 c 1.7091,1.40898 2.9847,2.62047 2.8348,2.69224 -0.15,0.0716 -3.683,0.33804 -7.8513,0.59171 -4.1682,0.25355 -7.8139,0.59992 -8.1015,0.76974 -0.4378,0.25847 -1.4435,9.46542 -5.81953,53.27628 -0.24533,2.4565 -0.11241,2.8318 0.91416,2.5805 0.66069,-0.1618 5.99887,-1.0377 11.86267,-1.9465 z M 431.84314,942.3961 c 1.86803,-0.16993 7.17405,-3.26083 26.9426,-15.69454 l 24.61649,-15.48292 14.81417,-1.45657 14.81417,-1.45661 3.60241,1.3133 c 1.98133,0.7223 18.21777,6.80921 36.08099,13.52646 17.86321,6.71721 32.54812,12.15569 32.63313,12.08546 0.0851,-0.0702 -0.11271,-1.77547 -0.43938,-3.78952 -0.32665,-2.01404 -0.61876,-4.51311 -0.6491,-5.5535 l -0.0551,-1.8916 6.00913,-0.38816 c 3.30501,-0.21348 15.40067,-0.39215 26.87922,-0.39708 l 20.8701,-0.01 6.01027,-7.55266 c 5.76755,-7.24769 6.09895,-7.54961 8.2063,-7.47669 1.2078,0.0417 10.6498,0.43068 20.98221,0.8642 l 18.7862,0.78828 4.34094,-2.00856 c 2.3875,-1.10475 4.87967,-2.25554 5.53813,-2.55737 1.45503,-0.66698 1.90555,0.45421 -6.76902,-16.84525 l -6.88579,-13.73214 -2.04201,-11.6723 c -1.1231,-6.41977 -2.27239,-11.7894 -2.55398,-11.93253 -0.28157,-0.14314 -3.76157,-0.81976 -7.73332,-1.50363 -6.51591,-1.12186 -8.10654,-1.63727 -16.28277,-5.27611 -59.16958,-26.33336 -107.64357,-41.76485 -131.56996,-41.88472 -7.37495,-0.0371 -23.08991,1.18403 -29.0764,2.25911 -18.72219,3.36227 -33.68302,12.01425 -44.98619,26.01588 -7.46177,9.24315 -10.55105,15.49181 -13.94298,28.20236 -1.38745,5.19912 -6.3044,18.47873 -12.73693,34.39962 -9.50928,23.53609 -10.69409,26.94463 -12.82624,36.89988 -1.29204,6.03262 -2.34916,11.41208 -2.34916,11.95439 0,0.96659 0.17201,0.9809 8.72293,0.7251 4.7976,-0.14344 9.76966,-0.3562 11.04902,-0.47261 z m -14.01962,-44.10786 c 3.68001,-9.17091 6.58907,-16.85477 6.46459,-17.07522 -0.12448,-0.22049 -1.86491,0.91658 -3.86761,2.52676 l -3.64129,2.92764 -14.56608,0.28861 c -13.7807,0.27304 -15.04183,0.37562 -23.389,1.90309 -10.16257,1.85969 -11.52882,1.92016 -17.22447,0.76246 -16.46438,-3.34667 -33.8184,-10.8656 -38.99365,-16.89473 -2.62406,-3.05701 -2.7907,-7.12574 -0.41073,-10.02807 2.28341,-2.78465 9.49469,-6.44834 17.74969,-9.01785 7.70305,-2.39768 7.46006,-2.11786 4.96465,-5.71714 l -1.06933,-1.54234 -2.90848,1.28633 c -1.59967,0.70748 -3.98026,1.75845 -5.29022,2.33546 l -2.38173,1.04914 -14.67641,-2.88425 -14.67642,-2.8843 -4.26455,-7.2755 -4.26453,-7.27547 -13.8775,-5.25785 -13.8775,-5.25779 -10.06219,-7.42332 -10.06219,-7.42327 -2.8106,0.25038 c -1.54581,0.13774 -3.04163,0.37809 -3.32405,0.53409 -0.47876,0.26453 -35.79075,35.72166 -37.73413,37.88923 -0.48645,0.54255 -2.97105,4.87257 -5.52135,9.62223 -5.80343,10.80824 -17.40169,29.03156 -25.10006,39.4374 l -5.86989,7.93428 1.83617,6.18198 c 1.00988,3.40007 2.04865,6.30739 2.30836,6.46069 0.25972,0.15334 4.23052,-0.81592 8.824,-2.15393 l 8.35179,-2.43269 6.84607,-12.1912 c 3.76534,-6.70513 6.92247,-12.24631 7.01583,-12.31379 0.0934,-0.0674 1.18119,0.18878 2.41739,0.56938 1.2362,0.38057 2.82033,0.69325 3.52032,0.69476 0.69999,0 8.89954,1.87727 18.22121,4.16825 57.9564,14.24397 98.95638,26.66431 106.35888,32.21992 1.38449,1.03911 1.48522,0.88485 9.81834,-15.03577 4.63071,-8.84706 8.63283,-16.23567 8.89358,-16.41913 0.26076,-0.18346 8.14026,1.39317 17.50999,3.50361 l 17.03587,3.83717 12.01825,20.89348 12.01824,20.89352 0.4999,-12.49597 0.49991,-12.49591 6.69093,-16.67437 z m 439.06819,22.62496 c 9.36221,-12.43618 13.68925,-23.89477 10.81525,-28.64018 -0.866,-1.42989 -0.38605,-4.77045 3.84739,-26.77765 2.6603,-13.82922 5.04542,-26.09342 5.3002,-27.25388 0.43545,-1.98242 0.25208,-2.27051 -3.03526,-4.76972 -1.92424,-1.46288 -3.37147,-2.73489 -3.21601,-2.82666 0.15539,-0.0917 1.72427,0.0242 3.48638,0.25812 3.68224,0.4884 3.68463,0.48493 2.10172,-3.02519 -1.27991,-2.83829 -0.90354,-2.92856 4.31168,-1.03412 2.0728,0.75293 3.76876,1.26528 3.76876,1.13853 0,-0.12675 -0.69303,-1.70686 -1.54012,-3.51135 -0.84701,-1.80455 -1.35728,-3.38887 -1.13389,-3.52074 0.22338,-0.13187 3.3789,0.63058 7.01221,1.69436 l 6.60608,1.93413 4.64384,-2.15379 4.64377,-2.15384 -2.16839,-1.21493 c -1.1926,-0.66826 -8.6743,-4.85294 -16.62604,-9.29935 l -14.45756,-8.08438 -8.41586,0.006 c -4.62866,0.004 -8.04393,0.15833 -7.58941,0.3433 1.22827,0.49985 8.86574,6.58616 8.86574,7.06514 0,0.22703 -1.27262,0.7267 -2.82801,1.11038 -3.53414,0.87175 -3.65083,0.80873 -10.7019,-5.7794 -6.02369,-5.62816 -6.32213,-6.85704 -1.8249,-7.51303 1.95927,-0.28577 5.09115,-0.20785 9.89574,0.24618 3.86615,0.36531 6.9377,0.52895 6.82574,0.36362 -0.11195,-0.16534 -5.4072,-6.80276 -11.76703,-14.74987 l -11.56348,-14.4492 -3.27416,1.32985 c -3.76093,1.52757 -9.00794,2.82525 -17.66495,4.3687 -6.67982,1.19099 -23.05742,3.23158 -29.5541,3.68236 -2.27672,0.15797 -4.56298,0.44172 -5.08053,0.63053 -0.6438,0.23492 2.02231,2.56649 8.44005,7.38098 5.15963,3.87067 9.38408,7.19206 9.38757,7.38087 0,0.18882 -6.18684,0.33113 -13.75639,0.31621 l -13.76283,-0.027 6.03533,-1.68942 6.03541,-1.68941 -4.29083,-2.89006 c -4.42007,-2.97713 -4.75992,-3.60468 -3.57856,-6.608 0.7963,-2.02421 1.10203,-1.98562 -9.60142,-1.21071 -7.82332,0.56641 -7.86016,0.58229 -11.42841,4.92227 -7.87567,9.57904 1.54407,27.18838 19.74535,36.91215 5.91313,3.15899 11.14471,4.67322 17.55857,5.08221 l 4.96811,0.31681 -0.44739,-8.7428 -0.44746,-8.74283 -2.44404,-2.09707 c -1.34426,-1.15346 -2.33178,-2.28513 -2.19454,-2.51491 0.13724,-0.22978 2.69193,0.19838 5.6771,0.9515 l 5.42761,1.36932 3.31609,-0.9357 c 1.82383,-0.51464 3.58734,-0.93571 3.91897,-0.93571 0.33161,0 2.50305,1.53219 4.82536,3.40478 3.60709,2.9087 4.59716,3.42563 6.79473,3.54747 l 2.57244,0.14268 -2.97781,2.51756 c -1.63774,1.38465 -5.67959,4.83059 -8.98182,7.65763 l -6.00399,5.14003 5.29097,1.57296 c 2.91003,0.86513 5.65639,1.84785 6.10309,2.18378 1.16305,0.87474 2.61679,3.58605 1.92276,3.58605 -0.32139,0 -8.2411,-0.90875 -17.59936,-2.01945 -9.35818,-1.11065 -17.05086,-1.98608 -17.09474,-1.94538 -0.0442,0.0407 -0.48391,7.40125 -0.97783,16.35675 l -0.89787,16.28269 4.284,12.48758 c 3.64974,10.63869 4.69308,14.90334 7.04711,28.80447 1.51972,8.97426 3.01728,16.60854 3.32781,16.96504 0.31054,0.35643 2.39682,1.0007 4.63617,1.43166 l 4.07155,0.7836 1.2081,-1.08855 c 0.88633,-0.79856 1.08793,-1.72859 0.75676,-3.49153 -0.25664,-1.36607 0.96558,-12.27908 2.83228,-25.28987 l 3.28362,-22.88687 2.53228,2.16482 2.53236,2.16488 -1.67992,20.85199 c -0.92401,11.46858 -1.5464,20.91958 -1.38318,21.00215 0.16321,0.0826 2.23136,0.26234 4.59593,0.39942 l 4.29912,0.24929 4.45954,-6.06182 4.45962,-6.06186 -0.72404,-16.8967 c -0.39823,-9.29317 -0.67558,-16.9313 -0.61634,-16.97359 0.059,-0.0421 2.25671,0.47252 4.88328,1.14397 l 4.77551,1.22083 -0.41288,16.93666 -0.41297,16.9367 -5.33284,5.75252 c -4.83459,5.21506 -5.33285,5.99687 -5.33285,8.36823 l 0,2.61574 8.9681,-0.12899 8.968,-0.12894 2.75676,-3.6619 z m -60.22193,-3.55676 c 0.0403,-1.5255 -16.69614,-53.37421 -17.13454,-53.08273 -1.32146,0.87854 -3.88398,8.26025 -4.57359,13.17516 -0.97177,6.92511 -0.97658,18.43835 -0.0113,25.84143 1.25843,9.64646 0.75071,8.89847 8.7544,12.89736 l 7.0326,3.51372 2.95859,-0.89103 c 1.62719,-0.4901 2.96525,-1.14434 2.97339,-1.45391 z m 109.35831,-0.12753 c 4.87515,-1.44649 11.36795,-4.55215 13.17556,-6.30226 0.82764,-0.80127 1.51291,-2.28081 1.52276,-3.28784 0.0171,-1.70187 0.40629,-2.02457 5.52536,-4.57737 7.27763,-3.62927 21.83877,-12.62029 29.25589,-18.06457 19.7925,-14.52809 29.97668,-28.82887 28.51255,-40.03776 -0.75536,-5.78237 -2.9502,-6.1573 -8.56242,-1.46279 -1.84475,1.54312 -6.75897,6.41034 -10.92047,10.81606 -15.98147,16.91931 -22.79884,22.91087 -31.53835,27.71784 -5.22809,2.87556 -9.37857,4.32604 -12.78873,4.46922 -1.92873,0.081 -2.0403,-0.07 -3.82924,-5.18054 -3.27501,-9.35588 -8.87342,-22.03004 -12.83161,-29.04903 -6.09364,-10.80586 -13.15013,-18.55568 -16.89578,-18.55568 -1.84895,0 -2.36907,3.37041 -2.37629,15.39702 -0.008,8.77057 -0.23275,10.17989 -4.69339,29.06633 -3.653,15.46686 -5.54739,21.9709 -8.58095,29.46127 -2.14117,5.28687 -4.07837,9.99273 -4.30478,10.45752 -0.39512,0.81098 0.31721,0.83161 17.69155,0.51321 16.70242,-0.30613 18.37683,-0.41297 21.63834,-1.38063 z M 379.19993,879.50744 c 3.793,-2.75859 7.15804,-5.02439 7.47789,-5.0351 0.31984,-0.0107 0.58152,1.61902 0.58152,3.62166 l 0,3.64117 2.90764,0.34143 c 9.45565,1.11038 19.61044,-0.0962 21.6665,-2.57437 0.92105,-1.11015 0.94846,-1.11312 1.55685,-0.16826 0.61859,0.96074 0.62583,0.96033 6.33754,-0.33841 3.14503,-0.71517 5.8424,-1.37357 5.99417,-1.46316 0.29937,-0.17673 12.71176,-35.85261 12.71176,-36.53629 0,-0.22873 -0.51123,-0.41585 -1.13606,-0.41585 -2.06227,0 -6.39349,-2.70088 -8.11109,-5.05796 -2.21264,-3.0364 -3.53424,-9.03437 -2.81901,-12.79381 l 0.56603,-2.97529 11.56535,-6.35057 c 6.36094,-3.49281 11.56535,-6.59737 11.56535,-6.89896 0,-0.73427 -7.26396,-6.96265 -10.3407,-8.86652 -1.34911,-0.83482 -3.57942,-1.93029 -4.95626,-2.43439 l -2.50335,-0.91653 -7.69254,2.54882 c -9.79424,3.24518 -10.88226,3.30399 -7.91122,0.42757 2.28097,-2.2083 6.57841,-3.911 10.53557,-4.17428 l 3.48423,-0.23185 0,-2.3871 c 0,-1.79589 -0.37936,-2.58974 -1.53175,-3.2054 -8.42807,-4.50277 -52.59729,14.93112 -71.27003,31.35791 -6.79266,5.97567 -6.81828,6.09161 -4.30994,19.50346 l 2.12847,11.38078 3.84851,3.27053 3.8485,3.27053 -2.45515,4.73988 c -3.80454,7.345 -4.05585,7.78685 -4.33503,7.62202 -0.14391,-0.0849 -0.98537,-2.725 -1.86987,-5.86682 -0.88452,-3.14178 -1.7919,-6.19109 -2.01638,-6.77621 l -0.40818,-1.06388 -4.42916,1.45946 c -23.89825,7.87459 -22.90101,16.01989 2.89056,23.60959 5.44228,1.60149 19.22908,4.70559 21.06326,4.74239 0.25833,0.005 3.57303,-2.24758 7.36602,-5.00619 z m -36.27648,-39.82902 c -0.182,-3.01356 -0.54322,-5.60453 -0.80273,-5.75775 -0.25949,-0.15315 -3.82298,0.59255 -7.91887,1.65715 -4.09589,1.06465 -7.60198,1.84422 -7.79133,1.73245 -0.44492,-0.26265 8.61711,-8.78925 15.10197,-14.20968 9.15497,-7.65228 17.93405,-13.78935 29.39341,-20.54766 13.74293,-8.10502 22.23372,-11.91199 34.91757,-15.65577 l 9.64737,-2.8475 7.79848,-0.13658 7.79846,-0.1366 3.83106,3.89504 c 2.60313,2.64658 6.02031,5.18145 10.66134,7.90856 l 6.83029,4.01357 -0.009,-4.11006 c -0.005,-2.26059 -0.22589,-4.88654 -0.49155,-5.83548 l -0.48304,-1.72534 -15.98505,-4.73521 c -8.7918,-2.60435 -16.42122,-4.64302 -16.95428,-4.53041 -0.53308,0.11265 -0.96922,-0.0732 -0.96922,-0.41297 0,-0.72409 -14.96443,-9.52977 -23.03234,-13.55314 -15.07536,-7.5179 -29.78342,-11.78935 -36.6131,-10.63302 -1.44788,0.24514 -3.40686,0.87516 -4.35328,1.40005 l -1.72078,0.95434 -1.66773,-1.25163 -1.66771,-1.25165 -2.97548,1.71525 -2.97547,1.71523 -13.62483,-4.25728 c -7.49366,-2.3415 -13.48863,-4.33769 -13.32217,-4.43596 0.16648,-0.0983 6.86212,0.28147 14.87921,0.84386 11.1577,0.7827 15.0831,1.23075 16.73634,1.91032 l 2.15979,0.88778 4.09215,-1.18193 c 9.64362,-2.78537 20.02202,-2.59555 30.27541,0.55372 10.15094,3.11781 22.31111,11.32877 31.1785,21.05276 1.66054,1.82097 3.21614,3.31434 3.45688,3.3186 0.24074,0.004 1.12341,-1.79457 1.96149,-3.99743 l 1.52377,-4.00521 -2.64601,-6.30937 c -2.26069,-5.39056 -2.69015,-7.51646 -1.35307,-6.698 0.17137,0.10488 2.53758,4.92831 5.25825,10.71869 l 4.94666,10.52797 11.82422,4.23416 c 7.48417,2.68 11.92933,4.02411 12.11066,3.6619 0.15756,-0.31474 0.66937,-4.36251 1.13735,-8.99509 l 0.85087,-8.42281 -2.43194,-5.30931 c -1.33758,-2.92012 -2.81983,-5.53163 -3.2939,-5.80338 -0.4741,-0.27173 -5.04897,-1.16785 -10.16641,-1.99136 -21.02748,-3.38382 -43.35708,-9.06534 -57.76512,-14.69768 -10.01726,-3.91592 -21.97813,-11.03901 -25.71855,-15.31625 -2.42952,-2.7782 -4.41314,-6.17946 -3.60387,-6.17946 0.14568,0 4.79655,2.6477 10.33526,5.88378 24.33213,14.21643 52.07373,23.29983 83.56598,27.36192 l 9.63508,1.2428 1.77482,4.15498 c 0.97615,2.28524 2.0116,4.31455 2.30099,4.50957 0.2894,0.19502 1.97627,-4.64555 3.74859,-10.75683 5.61888,-19.37479 5.43966,-16.47854 1.76258,-28.48373 -1.76988,-5.77843 -3.35599,-10.58772 -3.52468,-10.6873 -0.16869,-0.0995 -8.38244,0.28923 -18.25278,0.86402 -15.14903,0.88221 -18.04931,0.94651 -18.60831,0.41255 -0.36421,-0.3479 -2.10229,-4.04374 -3.8624,-8.21299 l -3.20018,-7.58044 -15.34517,-4.23064 c -8.43985,-2.32685 -15.57241,-4.23063 -15.85016,-4.23063 -1.34751,0 -0.25508,2.81067 1.70795,4.39426 5.56968,4.49314 29.69944,20.43735 42.53391,28.1051 12.78158,7.63615 15.0683,9.15476 13.78535,9.15476 -1.0361,0 -15.47007,-5.57048 -22.05887,-8.51316 -8.67076,-3.87252 -20.17861,-10.599 -25.45723,-14.8801 -4.47362,-3.62822 -8.77134,-8.41245 -10.64723,-11.85254 -0.96696,-1.77326 -3.08588,-3.7355 -7.16713,-6.6372 -5.68399,-4.04121 -5.89214,-4.13447 -10.93296,-4.89883 -2.82625,-0.42857 -5.35948,-0.63455 -5.62939,-0.45775 -0.78025,0.51111 -21.06164,28.61798 -24.80743,34.37927 l -3.39409,5.22035 -5.58534,2.10346 c -3.07194,1.15691 -7.63089,2.84339 -10.13101,3.74773 -4.50578,1.62985 -4.69444,1.78752 -21.49709,17.9662 -12.25565,11.80054 -17.34182,16.32193 -18.36076,16.32193 -2.23757,0 -10.68593,1.81251 -15.72986,3.37469 -5.63953,1.74663 -12.79407,5.5754 -15.48648,8.2876 -4.86333,4.89907 -5.40673,11.21351 -1.54886,17.99805 3.18412,5.59965 6.91891,9.29776 17.60563,17.43271 9.79278,7.45444 10.15234,7.6661 17.97758,10.58189 4.39173,1.63641 10.81863,4.29252 14.282,5.90248 5.2615,2.44578 6.43553,3.23615 7.13918,4.80625 0.46319,1.03347 1.78686,3.90866 2.94151,6.38932 l 2.09935,4.51022 8.88255,1.97551 c 8.58038,1.90831 9.1957,1.97679 18.0887,2.01253 l 9.20618,0.0371 -0.33092,-5.47922 z m 340.19118,4.53747 c 32.02534,-3.36928 55.82238,-15.23035 64.99431,-32.39487 3.33409,-6.23951 4.5046,-11.10531 4.69851,-19.53208 l 0.17911,-7.78153 7.02672,-8.54134 c 3.86468,-4.69776 7.46783,-9.26152 8.00694,-10.14171 0.89284,-1.45763 0.28503,-3.65276 -6.81512,-24.61306 l -7.79542,-23.0127 1.42094,-1.95701 c 1.40312,-1.93237 1.39684,-2.02432 -0.49863,-7.30747 -1.81251,-5.05167 -1.86252,-5.57041 -0.89555,-9.28913 l 1.02402,-3.93868 -4.51862,-8.23928 c -2.4853,-4.5316 -4.87072,-9.1823 -5.30105,-10.33489 l -0.78235,-2.09562 -4.8104,0.39559 c -4.06271,0.33411 -6.07578,0.21139 -12.95179,-0.78953 l -8.14139,-1.18512 -4.43988,-4.10871 -4.43987,-4.10872 -1.67319,-8.79809 c -0.92025,-4.83893 -2.19519,-9.47455 -2.83319,-10.30133 -0.70325,-0.91134 -2.57052,-1.99277 -4.74214,-2.74642 -2.98725,-1.03673 -4.41903,-1.23275 -8.62201,-1.1804 -5.24841,0.0654 -13.10281,1.52982 -18.53297,3.45543 -1.53434,0.54411 -2.84683,1.005 -2.91661,1.02423 -0.0698,0.0192 -3.64853,8.06823 -7.95275,17.8867 -4.30419,9.81848 -8.08518,18.19315 -8.40217,18.61039 -0.98807,1.30059 -9.04279,4.96788 -9.58171,4.36253 -0.26627,-0.29907 -1.62857,-4.82147 -3.02733,-10.04977 -1.39876,-5.22829 -2.62188,-9.45092 -2.71805,-9.38362 -0.0962,0.0673 -3.34704,4.60876 -7.22418,10.09213 l -7.04933,9.96974 -18.79975,16.51605 c -16.15672,14.19407 -18.87602,16.36401 -19.34226,15.43468 -0.29839,-0.59475 -1.28874,-5.81893 -2.20079,-11.60931 -2.37293,-15.06523 -1.10025,-13.99138 -10.23942,-8.6397 l -7.71899,4.52006 0.49678,2.42751 0.4968,2.4275 -4.67653,2.60761 -4.67652,2.60761 -0.50787,17.62289 -0.50787,17.6229 4.48639,3.6619 c 2.46751,2.01404 4.58752,3.74118 4.71113,3.83808 0.21832,0.17117 14.3901,-0.80434 14.74712,-1.01511 0.0981,-0.0579 -1.30291,-2.87022 -3.11341,-6.24956 l -3.29182,-6.14424 -3.31731,3.56826 c -1.82453,1.96252 -3.46251,3.48253 -3.63998,3.37777 -0.17744,-0.10477 0.77313,-3.42149 2.11239,-7.3705 l 2.43502,-7.18003 10.15844,-3.76548 c 6.73065,-2.49488 12.25153,-4.97687 16.3614,-7.35549 11.24995,-6.51099 29.11479,-13.91817 49.07755,-20.34865 6.52691,-2.10248 9.18078,-3.30506 14.55058,-6.59348 6.29821,-3.85698 6.77889,-4.0509 11.7159,-4.72683 3.51442,-0.48116 9.18159,-2.00908 17.85757,-4.81455 6.99013,-2.26033 13.04186,-4.1097 13.44828,-4.1097 1.87663,0 0.16475,1.06024 -7.03958,4.35988 -4.2782,1.95944 -7.68013,3.7216 -7.55987,3.91591 0.54224,0.8761 15.27922,6.54493 19.77934,7.60846 5.99048,1.41573 14.92799,4.81737 19.20785,7.31055 5.8656,3.41692 10.07795,6.24815 8.91675,5.99322 -5.50262,-1.20809 -10.69354,-2.82594 -10.45131,-3.25737 0.1625,-0.28942 -5.18016,-2.78102 -11.87258,-5.53689 -11.20703,-4.61494 -12.71371,-5.09434 -19.07747,-6.07011 -3.8002,-0.58269 -9.73449,-1.2582 -13.18733,-1.50112 l -6.27789,-0.44168 -10.85518,3.12712 c -5.97035,1.71992 -12.42532,3.91143 -14.34436,4.87002 -7.06737,3.53027 -24.25697,10.88535 -41.09528,17.58384 -13.77539,5.48001 -17.92079,7.3705 -20.35411,9.28229 -10.19618,8.01092 -10.91366,15.67027 -2.02753,21.64501 1.7752,1.19359 2.82491,1.55131 3.93943,1.34248 0.83566,-0.15657 6.35445,-0.0317 12.26398,0.27731 l 10.74459,0.56199 6.05238,-2.96312 6.05238,-2.96314 17.44583,-1.02019 c 9.59521,-0.56111 18.29762,-1.05741 19.33869,-1.10287 1.4657,-0.064 2.2901,0.33044 3.65316,1.74793 l 1.7603,1.83061 -2.4901,0.50545 c -1.36955,0.27799 -9.46844,1.28608 -17.99751,2.24018 -8.52908,0.9541 -15.76078,1.8651 -16.07047,2.02443 -0.30969,0.15935 6.58142,1.69001 15.31356,3.40147 l 15.87663,3.11176 0,2.74326 c 0,2.39654 -0.17149,2.7137 -1.3569,2.50943 -0.74629,-0.12859 -11.12656,-1.7104 -23.06727,-3.51512 l -21.71037,-3.28131 -25.97491,0.54318 -25.97491,0.54317 -7.43696,2.89532 -7.43696,2.89534 -4.1936,-0.85475 c -7.24839,-1.4774 -13.8578,-1.04408 -19.09823,1.25211 -7.91979,3.4702 -13.4415,13.00364 -14.6811,25.3475 l -0.48465,4.82629 12.32139,0.57203 c 11.54493,0.53597 13.54296,0.77935 31.70567,3.86194 l 19.38426,3.28989 49.23602,19.34692 c 32.81098,12.89287 49.89985,19.34738 51.22589,19.34825 1.09443,0 4.06022,-0.21651 6.59065,-0.48272 z M 439.98455,838.3968 c 0,-0.6974 0.67658,-2.70573 1.5035,-4.46294 6.70297,-14.24384 26.16274,-25.81105 55.09855,-32.7514 l 8.91675,-2.13873 1.27632,-6.07775 c 0.70197,-3.34276 1.49116,-6.87091 1.75375,-7.84031 l 0.47743,-1.76261 -7.19104,0 -7.19103,0 -11.61117,6.86606 c -6.38614,3.77633 -11.87722,6.86607 -12.2024,6.86607 -1.30216,0 -0.38193,-0.95219 4.18309,-4.32833 l 4.77431,-3.53089 13.60134,-26.3955 13.60133,-26.39551 -0.22705,-5.03512 c -0.12487,-2.76931 -0.3215,-5.09299 -0.43695,-5.16374 -0.11543,-0.0707 -3.86259,0.20721 -8.327,0.6177 l -8.11712,0.74632 -13.64371,24.55787 c -8.61768,15.51131 -14.41454,26.73616 -15.73623,30.47107 l -2.09253,5.91314 1.37831,6.79337 1.37831,6.79338 -4.76811,2.93135 c -2.62245,1.61224 -4.7681,2.79952 -4.7681,2.6384 0,-0.16112 -2.7041,1.25869 -6.00911,3.15509 -3.30503,1.89645 -8.60373,4.8594 -11.77493,6.58434 l -5.76581,3.13627 -0.30631,2.89056 c -0.38935,3.67422 0.9486,8.80408 3.04749,11.68436 2.78987,3.82851 9.17812,6.08191 9.17812,3.23748 z m 376.89634,-20.9101 c 1.23485,-1.27099 2.23524,-2.51687 2.22299,-2.76862 -0.0124,-0.25175 -1.77933,-1.57004 -3.92679,-2.92952 l -3.90454,-2.47178 -2.65657,0.74785 c -3.1211,0.87863 -3.19545,1.27132 -1.74141,9.19554 l 0.9175,4.99977 3.42179,-2.2312 c 1.88198,-1.22714 4.43209,-3.27107 5.66703,-4.54204 z m 94.25729,-1.71335 c 5.31229,-4.07555 7.55529,-7.33341 7.56288,-10.98469 0.008,-2.763 -0.26672,-3.30157 -2.77892,-5.49286 -4.08954,-3.56719 -4.51235,-4.19795 -4.51235,-6.73198 0,-1.90818 0.40032,-2.57204 2.33596,-3.87347 2.41861,-1.62621 6.17574,-2.7376 11.09726,-3.28263 5.87746,-0.65094 2.69379,-1.91334 -10.33173,-4.09674 -9.98786,-1.67422 -10.66593,-1.86483 -14.79796,-4.16015 -13.27085,-7.37191 -40.27312,-14.10737 -75.23279,-18.76621 l -8.66896,-1.15525 -10.10299,-5.71758 c -8.97081,-5.07683 -10.23311,-5.64081 -11.26358,-5.03247 -1.03055,0.60835 -0.80933,0.98219 1.97371,3.33579 4.75891,4.02461 6.43921,6.26437 6.43921,8.58301 0,2.94918 -1.81808,3.90901 -7.40455,3.90901 -2.37186,0 -5.34704,-0.31872 -6.62934,-0.71019 -3.2198,-0.98293 -4.62121,-0.5887 -9.77936,2.75106 -4.07945,2.64125 -12.49843,10.84302 -13.78422,13.42851 -0.50989,1.02537 -0.42312,1.04387 3.61159,0.76891 38.538,-2.62618 63.18874,-6.38627 70.94733,-10.82183 l 2.45754,-1.40492 1.52499,1.77056 c 0.83872,0.97383 5.60764,6.91014 10.59769,13.19181 14.36133,18.07899 12.97869,16.72962 17.14205,16.72962 3.31424,0 3.49513,0.063 2.95602,1.02991 -0.31581,0.56646 -0.60099,1.39816 -0.63379,1.8483 -0.0365,0.49627 6.19629,4.30873 15.83554,9.68687 12.52666,6.98915 16.11678,8.76014 16.94107,8.35714 0.57526,-0.28123 2.59928,-1.70301 4.4977,-3.15953 z m 19.24973,-21.61354 c 3.69565,-2.05763 4.11326,-3.47858 1.79878,-6.12087 -2.15343,-2.45846 -3.41264,-2.58306 -8.68996,-0.8599 -6.14714,2.00717 -7.97942,5.51999 -4.41892,8.47193 l 1.66744,1.38242 3.50824,-0.7057 c 1.92951,-0.38811 4.68999,-1.36369 6.13442,-2.16788 z M 484.4341,724.9324 l -3.72751,-2.57574 -1.28997,-6.91685 c -0.70948,-3.80427 -1.22326,-6.95885 -1.14171,-7.01019 0.0816,-0.0514 4.4967,-0.8096 9.81149,-1.68504 5.31478,-0.87543 8.96542,-1.60689 8.11251,-1.62545 -1.86931,-0.0407 -29.38164,1.39093 -29.65898,1.54333 -0.10723,0.0589 1.56175,5.5875 3.70878,12.28577 l 3.90368,12.17869 -3.90262,16.65152 c -2.14645,9.15833 -3.86635,17.0493 -3.82202,17.53549 0.0443,0.48618 4.95259,-7.82123 10.90725,-18.46091 l 10.82662,-19.34486 -3.72752,-2.57576 z m 66.89327,35.42934 c -0.23866,-1.57347 -0.65622,-10.43692 -0.9279,-19.69654 -0.44799,-15.26875 -0.61178,-16.8164 -1.76003,-16.62853 -0.69635,0.11394 -4.66802,0.34536 -8.82594,0.51429 -6.28086,0.25517 -7.56838,0.43542 -7.61021,1.06545 -0.0277,0.41707 -1.33844,8.93858 -2.91278,18.93667 l -2.86244,18.17836 6.2081,0.15242 c 3.41446,0.0838 9.11445,0.19433 12.66663,0.24557 l 6.45853,0.0931 -0.43396,-2.86086 z m 248.56189,0.27237 c 3.00379,-1.6048 1.39334,-4.93628 -4.99989,-10.34322 -2.54035,-2.1485 -3.31533,-2.53343 -4.21391,-2.09317 -2.32495,1.13909 -3.5481,3.41816 -3.92415,7.31188 l -0.38528,3.98947 2.62447,0.94458 c 3.24826,1.16906 8.88273,1.26753 10.89876,0.19046 z m -282.1285,-24.88775 c 11.69893,-0.98551 10.32284,-0.41584 11.33141,-4.69099 0.48854,-2.07084 1.06169,-4.28635 1.27368,-4.92336 l 0.38542,-1.1582 -10.68554,0.55194 c -5.87703,0.30357 -10.94721,0.56729 -11.26706,0.58603 -0.71303,0.0418 -0.75269,3.51031 -0.0834,7.29073 0.56837,3.21025 0.12479,3.09532 9.04546,2.34385 z M 318.36683,700.5467 c 15.16764,-26.86658 18.28909,-32.82256 17.51228,-33.41484 -1.07756,-0.82159 -16.17264,-11.08725 -18.97968,-12.90746 -1.50772,-0.97767 -2.56772,-3.19075 -5.70031,-11.90117 -2.87715,-8.00017 -6.14498,-15.03152 -12.95047,-27.86534 -8.70432,-16.41459 -9.18494,-17.16516 -10.99147,-17.16516 -1.35438,0 -2.04177,0.32393 -2.42833,1.14435 -0.29656,0.62938 -0.57398,11.33014 -0.61648,23.77946 -0.0522,15.27741 -0.3325,22.48446 -0.86241,22.17163 -1.10746,-0.65378 -4.27049,-9.27624 -6.27792,-17.11363 -2.32646,-9.08301 -2.51887,-21.46151 -0.39301,-25.28564 0.89084,-1.60249 2.47574,-3.20972 4.06244,-4.11963 l 2.60172,-1.49201 0.008,-6.50188 c 0.007,-4.589 0.79738,-10.31234 2.69054,-19.45384 1.47524,-7.12359 3.27218,-17.20633 3.99316,-22.4061 1.2899,-9.30276 1.28413,-9.59591 -0.36014,-18.3095 -0.91907,-4.87046 -1.66925,-8.98973 -1.66707,-9.15391 0.003,-0.29687 4.28787,-1.30356 5.54728,-1.30356 0.36282,0 0.65967,0.51195 0.65967,1.13766 0,2.25035 4.80139,20.77378 7.46506,28.79962 5.53413,16.67485 11.94766,28.29415 17.14764,31.06609 1.50542,0.8025 1.52582,0.71026 1.97322,-8.92588 0.40562,-8.73629 1.01727,-12.11195 5.95261,-32.85251 6.83976,-28.74383 19.32867,-71.78032 20.98264,-72.30573 0.62835,-0.19961 3.16927,-0.50736 5.6465,-0.68391 l 4.50407,-0.32098 14.28899,8.35758 c 7.85896,4.59667 14.42373,8.26919 14.58838,8.16115 0.16466,-0.10804 3.14201,-2.94434 6.61637,-6.30288 5.24066,-5.06599 7.39232,-7.79572 12.62809,-16.02081 3.47111,-5.45291 6.55192,-10.07924 6.84626,-10.28073 0.29434,-0.2015 4.87937,7.00787 10.18895,16.02082 l 9.65382,16.38716 7.95711,23.34462 c 4.3764,12.83954 10.46203,32.35632 13.52363,43.37063 3.06159,11.01431 5.76271,20.02602 6.0025,20.02602 0.23979,0 5.39749,-10.76255 11.46155,-23.91678 l 11.02558,-23.91679 3.51108,-16.47855 c 1.93109,-9.06321 3.76538,-17.07106 4.07621,-17.79522 0.50445,-1.17532 1.22224,-0.43826 6.68634,6.86606 6.77777,9.06039 29.09845,33.06836 57.39907,61.73803 l 17.62197,17.85176 1.81185,7.78154 c 1.58254,6.79667 8.87603,42.66993 9.95785,48.97792 0.21588,1.25878 0.7382,14.33863 1.1607,29.06634 l 0.7682,26.77765 2.44565,8.46815 c 1.34512,4.65747 2.6745,10.42496 2.95419,12.81665 l 0.50853,4.34851 7.04082,-7.55268 c 3.87245,-4.15397 15.53799,-18.62419 25.92343,-32.15607 10.38544,-13.53186 19.09245,-24.60339 19.34893,-24.60339 0.25647,0 1.50084,6.69275 2.76528,14.87277 l 2.29896,14.87276 7.18937,-15.44493 c 7.67918,-16.49721 9.36371,-21.10143 7.91384,-21.63042 -0.60219,-0.21972 0.19367,-2.5331 2.61224,-7.59323 5.58372,-11.68214 5.76447,-12.23249 7.87747,-23.98464 1.79041,-9.95802 4.14828,-36.80676 4.23248,-48.1947 l 0.0263,-3.5653 6.74275,0.13226 6.74274,0.13226 17.02687,12.70717 c 9.36479,6.98896 17.16986,12.62278 17.34463,12.51961 0.17476,-0.10318 -1.44332,-4.17355 -3.59573,-9.04528 -3.27076,-7.40298 -5.67996,-11.41367 -14.66946,-24.42077 -8.73586,-12.64016 -14.23583,-19.65216 -29.28448,-37.3353 l -18.52853,-21.77222 -33.34093,-19.03075 c -18.33751,-10.46691 -33.45968,-18.96603 -33.60483,-18.88693 -0.14515,0.0791 3.08233,7.67064 7.17217,16.87006 4.08985,9.19942 7.43609,16.95507 7.43609,17.23479 0,0.27974 -17.27138,-4.66598 -38.38084,-10.99048 -21.10946,-6.32449 -38.38084,-11.3756 -38.38084,-11.22468 0,0.15092 11.77594,10.38447 26.16875,22.74122 l 26.16875,22.46684 0.38769,-9.06508 c 0.25963,-6.07062 0.67316,-9.12105 1.25188,-9.23453 0.94835,-0.18595 12.78847,6.34103 43.65608,24.06584 11.46133,6.58133 20.22317,11.28331 20.22317,10.85263 0,-0.41796 -2.28262,-8.50939 -5.07246,-17.98095 -2.78985,-9.47155 -4.97058,-17.48166 -4.84607,-17.80023 0.24946,-0.63825 20.77371,13.67677 20.77371,14.489 0,0.99884 -1.50564,0.10878 -9.99277,-5.90719 -4.73887,-3.35908 -8.59454,-5.83086 -8.56817,-5.49286 0.0263,0.33801 2.41218,8.54487 5.30179,18.23746 2.8896,9.69259 5.14357,17.70425 5.00879,17.80367 -0.13475,0.0994 -6.70529,-3.50525 -14.6012,-8.0104 -7.8959,-4.50515 -22.64521,-12.89987 -32.77625,-18.65493 l -18.42007,-10.46374 -0.38769,10.18184 -0.38768,10.18184 -29.5467,-25.35141 c -16.25067,-13.94326 -29.25328,-25.41898 -28.89465,-25.50159 0.35861,-0.0826 18.27776,5.12985 39.82035,11.58324 21.54257,6.45339 39.16831,11.5996 39.16831,11.43601 0,-0.16358 -3.50098,-8.13265 -7.77995,-17.70905 -4.27898,-9.57639 -7.58241,-17.52826 -7.34094,-17.6708 0.24146,-0.14256 3.82968,1.70703 7.9738,4.11018 22.23664,12.89486 57.73788,32.92898 58.03773,32.75197 0.18999,-0.11216 -5.52614,-7.18197 -12.70252,-15.71067 -11.99124,-14.25088 -15.70146,-19.13612 -14.85854,-19.56417 0.17558,-0.0892 1.91338,-0.28508 3.86179,-0.43535 l 3.54257,-0.27323 25.9215,29.15624 25.92152,29.15625 17.69371,24.94486 c 9.73154,13.71967 17.83509,25.02831 18.00788,25.13032 0.17279,0.102 1.02141,-0.78856 1.88581,-1.97905 1.43939,-1.98235 1.67628,-4.03905 2.81493,-24.43931 l 1.24327,-22.2748 -3.49425,-13.73213 -3.49424,-13.73212 -18.63998,-18.70595 C 694.25554,452.03317 684.37609,442.558 682.55321,441.26552 659.86894,425.18161 627.21385,410.01129 594.15314,400.19819 l -6.1399,-1.82245 -16.90674,4.35669 -16.90673,4.35669 -7.62924,4.58419 c -4.19606,2.52131 -7.95574,4.58421 -8.35483,4.58421 -0.39908,0 -2.95064,-0.93733 -5.67014,-2.08295 l -4.94453,-2.08294 0.0181,-3.52435 0.0181,-3.52433 5.01654,-4.80625 c 2.7591,-2.64343 4.72677,-4.86373 4.37259,-4.93401 -0.35418,-0.0703 -4.4453,0.81243 -9.0914,1.96156 -9.74193,2.40951 -16.80878,3.24904 -33.01208,3.92175 -18.07183,0.75029 -38.15781,-0.41572 -56.40541,-3.27437 l -8.83287,-1.38375 -2.02234,1.102 c -5.28445,2.8796 -37.31949,19.08537 -37.72731,19.08537 -1.33512,0 -12.75363,-5.30183 -12.7419,-5.9163 0.008,-0.3965 1.36061,-3.60464 3.00676,-7.12922 1.64614,-3.52458 2.84056,-6.56281 2.65427,-6.75162 -0.1863,-0.18882 -1.55874,-0.34331 -3.04986,-0.34331 -1.87411,0 -4.91215,0.75753 -9.84021,2.45363 -3.921,1.3495 -10.1821,3.426 -13.91357,4.61445 -3.73147,1.18844 -6.7845,2.25127 -6.7845,2.36183 0,0.11056 6.45056,4.7654 14.3346,10.34408 7.88403,5.57869 14.1989,10.22316 14.03306,10.32106 -0.16583,0.0979 -19.52653,-8.28587 -43.02377,-18.6306 l -42.72227,-18.80862 -5.34593,-0.59676 c -4.52136,-0.5047 -12.11566,-0.45311 -49.23554,0.33449 -24.13934,0.51217 -43.88966,1.04912 -43.88966,1.19323 0,0.46239 59.49876,6.97101 61.05688,6.67906 2.68767,-0.50358 11.61897,1.52937 27.60511,6.28352 16.9338,5.03597 37.52244,12.14359 44.37911,15.32058 3.6696,1.70028 6.43802,3.96762 5.51196,4.51432 -0.15488,0.0914 -1.7125,-0.6373 -3.46135,-1.61943 -8.46083,-4.75146 -50.18344,-11.07292 -57.60564,-8.72793 -0.82487,0.26062 -1.49977,0.94642 -1.49977,1.52399 0,0.71813 -6.3869,5.3749 -20.20202,14.72952 -18.57071,12.57479 -20.63216,14.14274 -25.5289,19.41752 -7.58591,8.17155 -36.92047,46.89501 -44.57036,58.83569 -3.54837,5.53862 -7.13691,10.99715 -7.97453,12.13004 -1.52044,2.05642 -1.52033,2.06302 0.0702,4.00521 0.87628,1.06996 1.78539,1.93356 2.02025,1.91911 0.23486,-0.0145 16.65165,-10.82616 36.48174,-24.02601 19.8301,-13.19985 36.33374,-24.00208 36.67476,-24.00494 0.34101,-0.003 0.41617,1.17917 0.16701,2.62677 -0.85843,4.98762 -5.07297,45.57041 -4.75215,45.7598 0.17675,0.10435 0.74753,-0.57257 1.26839,-1.50425 0.52086,-0.9317 11.88386,-18.49511 25.25112,-39.02983 13.36726,-20.53471 24.14678,-37.42872 23.9545,-37.54223 -0.19229,-0.11352 -8.81641,1.70439 -19.16473,4.03978 -39.77697,8.97685 -49.33464,10.88604 -48.53759,9.69565 2.0588,-3.07486 11.97119,-15.17707 12.43088,-15.17707 1.15499,0 0.63285,0.86888 -4.43251,7.37614 -2.77955,3.57075 -4.87101,6.60014 -4.64769,6.73197 0.22332,0.13184 14.97322,-2.98856 32.77757,-6.9342 17.80434,-3.94565 32.80571,-7.17391 33.33638,-7.17391 0.53067,0 0.96485,0.18445 0.96485,0.4099 0,0.35158 -37.51559,58.13093 -49.73128,76.59324 -2.28634,3.45547 -4.42019,6.28773 -4.74192,6.29389 -0.6991,0.0133 -0.32972,-4.82546 2.22928,-29.20365 1.06565,-10.15191 1.82947,-18.8754 1.69735,-19.38555 -0.17952,-0.69325 -9.2273,5.0385 -35.82032,22.6921 -19.56906,12.99079 -35.79369,23.61549 -36.05472,23.61044 -0.26103,-0.005 -1.18687,-0.97729 -2.05741,-2.16054 l -1.5828,-2.15135 -4.01196,6.39461 c -3.68588,5.8749 -4.26223,7.3611 -7.09134,18.28643 -1.69366,6.5405 -3.0141,11.92031 -2.93431,11.95512 0.0798,0.0348 12.88053,-9.81611 28.44609,-21.89093 l 28.30102,-21.95422 0.6076,2.84033 c 0.52847,2.47047 0.087,4.36866 -3.39022,14.57649 l -3.99782,11.73614 0.49816,11.21457 c 0.27398,6.16802 1.0397,19.24786 1.7016,29.06633 l 1.20343,17.85177 6.97753,22.20027 c 4.33161,13.78182 8.4462,25.41144 10.85056,30.66843 4.16866,9.11451 19.17409,32.98916 20.07999,31.9486 0.28421,-0.32647 2.73397,-8.78031 5.44391,-18.78631 2.70993,-10.00599 5.1663,-18.03929 5.45859,-17.85177 0.2923,0.18754 4.43252,9.91913 9.20053,21.62576 6.17064,15.15054 11.4748,26.75946 18.40445,40.28091 5.35446,10.44786 10.0635,19.36892 10.46453,19.82459 0.48229,0.54797 1.41292,0.78044 2.7488,0.6866 1.95325,-0.13721 2.62647,-1.21675 20.47724,-32.83596 z m 203.31954,23.93537 27.03822,-1.28936 -0.53157,-4.81732 c -0.29237,-2.64952 -0.69846,-5.22928 -0.90242,-5.73279 -0.29946,-0.73925 0.82724,-1.35601 5.85351,-3.20416 3.42338,-1.25878 6.22955,-2.51543 6.23592,-2.79256 0.007,-0.27712 -0.3864,-1.17781 -0.8728,-2.00153 l -0.88438,-1.49766 -8.61391,0.2805 c -4.73765,0.15427 -13.14984,0.2759 -18.69373,0.27026 -5.5439,-0.005 -12.8503,0.20231 -16.23642,0.46206 -6.5124,0.49959 -32.11637,4.40151 -33.32221,5.07817 -0.42947,0.24098 -0.31392,2.76124 0.29226,6.37449 l 1.00255,5.97592 3.19691,2.32387 c 3.05484,2.22059 3.33473,2.31356 6.29838,2.09167 1.70582,-0.12771 15.26868,-0.81242 30.13969,-1.52156 z m -26.17112,-6.01575 c -0.21291,-0.43373 -0.77755,-1.71552 -1.25477,-2.84842 -0.47722,-1.13291 -1.04488,-2.4203 -1.26145,-2.86087 -0.34038,-0.69236 0.17155,-0.80104 3.77354,-0.80104 l 4.16732,0 1.41474,3.22011 c 0.7781,1.77106 1.2815,3.28691 1.11868,3.36855 -0.16284,0.0816 -1.93292,0.27485 -3.93352,0.42936 -3.02883,0.2339 -3.70221,0.14896 -4.02454,-0.50769 z M 344.03244,698.68759 c 7.99601,-10.65402 14.53821,-19.43713 14.53821,-19.51802 0,-0.29531 -13.92083,-5.66354 -14.68662,-5.66354 -1.23755,0 -5.1717,4.35203 -8.68953,9.61249 -5.28957,7.90986 -20.81998,35.89964 -20.81998,37.52292 0,0.22238 3.40194,-0.26779 7.55987,-1.08928 l 7.55986,-1.49361 14.53819,-19.37096 z m 433.56741,9.49725 6.91979,-0.53649 11.47634,-9.13506 11.47625,-9.13505 -2.66789,-2.09994 c -1.46739,-1.15498 -3.934,-3.17299 -5.48141,-4.48448 l -2.81343,-2.38452 3.36806,-2.35963 3.36805,-2.35964 -3.48917,-1.80195 c -4.65354,-2.40331 -14.46709,-5.14784 -22.09806,-6.18013 -4.59895,-0.62212 -9.34421,-0.8391 -18.35045,-0.8391 -6.68106,0 -12.38663,0.14119 -12.67895,0.31377 -0.29239,0.17259 0.8716,3.73432 2.58649,7.91498 3.01852,7.35862 3.26718,7.72978 7.79294,11.63066 l 4.67494,4.02946 1.20299,10.46112 c 0.66169,5.75362 1.21027,10.78072 1.21904,11.17132 0.009,0.41506 1.37868,-0.19968 3.29532,-1.47932 3.26524,-2.1801 3.30912,-2.19182 10.19915,-2.726 z m -309.31428,-2.64099 c 19.61687,-1.00406 36.437,-1.87742 37.37804,-1.94079 1.58556,-0.10681 1.47188,-0.27096 -1.55074,-2.23965 l -3.26174,-2.12442 -22.48575,0.6066 c -12.36715,0.33364 -25.15537,0.62019 -28.41827,0.63678 l -5.93253,0.0302 -1.5509,-1.55179 c -1.49598,-1.49681 -1.78018,-1.56652 -8.02415,-1.96814 -7.28049,-0.46828 -8.9101,-0.20317 -9.7594,1.58776 -0.68529,1.44505 -0.50652,8.13799 0.23633,8.84756 0.30394,0.29034 1.92886,0.37394 4.10267,0.21111 1.97967,-0.1483 19.64957,-1.09114 39.26644,-2.09521 z m 69.18906,-2.95117 c 0.26846,-0.12086 -3.50123,-8.08351 -3.95325,-8.35036 -0.41317,-0.24391 -23.24578,2.59252 -24.41733,3.0333 -0.40723,0.15321 -0.37097,1.44162 0.0875,3.10906 l 0.78292,2.84742 13.65954,-0.27894 c 7.51275,-0.15343 13.74102,-0.31564 13.84062,-0.36048 z m 12.26047,-0.24918 c 1.99765,0 2.47629,-0.1693 2.26473,-0.80104 -0.14753,-0.44057 -0.44487,-4.30337 -0.66073,-8.584 l -0.39251,-7.78297 9.37958,-1.49333 c 5.15877,-0.82134 9.57845,-1.37594 9.82149,-1.23246 0.78407,0.46287 -1.45049,0.98609 -9.77313,2.28837 l -8.15575,1.27617 0.48493,2.73893 c 0.2667,1.50641 0.48493,4.95815 0.48493,7.67052 l 0,4.93161 2.42646,0.31461 c 2.31433,0.30008 2.94324,0.0109 13.61084,-6.25753 l 11.18439,-6.57213 -0.45125,-4.34851 c -1.18328,-11.40303 -1.194,-11.44344 -3.03994,-11.44344 -3.37481,0 -26.65058,4.93396 -34.67113,7.34954 l -3.01604,0.90835 0,8.62382 c 0,4.7431 0.22739,9.60321 0.50531,10.80023 l 0.50531,2.1764 3.47977,-0.28157 c 1.91385,-0.15485 4.6196,-0.28157 6.01274,-0.28157 z m -33.74118,-8.99533 16.35999,-3.50251 -0.24398,-5.49171 -0.24398,-5.49171 6.98455,-2.12365 c 9.06117,-2.75506 26.77279,-6.71944 33.27209,-7.44729 l 5.10253,-0.57142 -0.0153,-3.67194 c -0.029,-6.94708 -1.52001,-26.56037 -2.10884,-27.74116 l -0.58961,-1.18234 -11.63055,2.28692 -11.63056,2.28692 -12.40593,0.007 c -14.00058,0.009 -22.22097,-0.88336 -31.03638,-3.36707 -2.6688,-0.75192 -5.11559,-1.36714 -5.4373,-1.36714 -0.32172,0 -3.45144,-1.69985 -6.95492,-3.77746 -9.94263,-5.89607 -14.71684,-12.51127 -15.25363,-21.13557 l -0.24592,-3.9511 -4.49618,-0.97162 c -2.47289,-0.53439 -4.35461,-1.19784 -4.18158,-1.47433 0.17303,-0.27647 1.96777,-3.9014 3.98831,-8.05537 2.02055,-4.15396 4.07671,-7.77728 4.56927,-8.05182 0.49255,-0.27454 9.61847,-1.61208 20.27981,-2.97231 l 19.38426,-2.47315 22.48575,-0.23185 22.48574,-0.23187 0.78664,-4.68439 0.78664,-4.68439 -10.46527,-9.88894 -10.46526,-9.88895 -6.99183,0.31905 c -3.84551,0.17547 -14.49356,1.10007 -23.66231,2.05465 -13.77506,1.43415 -18.55584,2.14816 -27.52565,4.11095 -5.97036,1.30645 -11.252,2.56868 -11.73699,2.80499 -0.48499,0.2363 -4.14771,4.64631 -8.13936,9.80003 -6.63305,8.56409 -7.42453,9.36979 -9.19801,9.3634 -1.06725,-0.003 -2.37804,-0.17103 -2.91285,-0.37149 -0.65053,-0.24383 -1.87395,-5.43081 -3.69609,-15.6705 -2.70534,-15.20299 -2.79927,-15.52192 -13.95348,-47.37615 -6.1764,-17.63857 -11.22982,-32.16788 -11.22982,-32.28736 0,-0.11949 -2.00627,-0.0963 -4.45838,0.0514 -2.96636,0.17872 -7.51729,1.07474 -13.59894,2.67746 l -9.14057,2.40887 -9.08063,-0.53739 c -7.73664,-0.45784 -44.87149,-0.26883 -45.7444,0.23284 -0.12175,0.07 -1.42204,7.93004 -2.88956,17.46685 -1.46752,9.53681 -4.04666,24.44602 -5.73143,33.13159 -1.68475,8.68557 -2.82687,15.92742 -2.53803,16.09299 0.28885,0.16556 9.82002,2.29875 21.1804,4.7404 l 20.65522,4.43938 0.49934,1.84347 c 0.27464,1.01389 0.37926,1.91433 0.23249,2.00098 -0.14677,0.0866 -10.53093,-1.67907 -23.0759,-3.92381 -12.54499,-2.24474 -22.87487,-4.04248 -22.9553,-3.99498 -0.0805,0.0475 -1.00263,5.02993 -2.04937,11.07208 -1.42732,8.23897 -1.68251,11.12662 -1.02065,11.54935 0.64795,0.41385 8.46775,0.65716 29.42202,0.91547 l 28.53951,0.35183 7.4106,9.15475 c 4.07583,5.03511 8.07832,10.25683 8.89442,11.60381 2.51322,4.1481 3.39594,11.4979 2.35197,19.58339 -0.82748,6.40878 -1.09724,7.21723 -2.86482,8.5853 -1.50171,1.1623 -1.95132,2.05405 -1.95132,3.87021 l 0,2.35991 -3.70388,0 c -3.1056,0 -4.35922,0.2907 -7.7611,1.7997 -8.30319,3.68311 -19.32684,4.76765 -28.24367,2.77866 -18.26409,-4.07397 -37.76917,-21.92826 -52.72916,-48.26647 -2.51294,-4.42422 -3.8283,-5.99455 -6.89585,-8.23265 -3.81685,-2.78478 -4.4151,-3.46549 -3.04566,-3.46549 1.43914,0 16.70323,-1.0149 16.90654,-1.12411 0.18359,-0.0986 -10.63574,-18.1369 -11.07382,-18.4626 -0.29092,-0.2163 -8.4916,-0.93288 -8.78613,-0.76775 -0.14851,0.0833 -1.02081,4.71685 -1.93843,10.29683 l -1.66839,10.14545 11.88575,21.12646 c 9.54399,16.96407 12.59929,23.04098 15.50741,30.84377 l 3.62165,9.71731 12.91588,9.96541 12.91586,9.96539 26.24035,8.32991 c 25.17683,7.99229 27.21452,8.54656 50.27682,13.6757 l 24.03649,5.34579 25.19954,0.55916 c 13.85976,0.30754 25.79797,0.59041 26.52937,0.6286 0.73141,0.0382 8.69183,-1.50668 17.68982,-3.43305 z m -38.26893,-6.15682 -2.9665,-1.45034 -3.62415,0.99975 c -3.00203,0.82812 -4.74315,0.97626 -10.14301,0.863 l -6.51888,-0.13673 -1.42621,-2.48085 c -0.78442,-1.36449 -1.3401,-2.50823 -1.23484,-2.54166 0.10532,-0.0334 1.13864,-0.41042 2.29638,-0.83774 3.04029,-1.12215 4.06131,-0.97442 5.70294,0.82515 0.80381,0.88114 1.81828,1.60102 2.25437,1.59973 0.43608,-0.001 2.18856,-0.50982 3.89437,-1.13006 2.63038,-0.95642 4.07939,-1.12988 9.53942,-1.142 5.61242,-0.0125 6.80374,0.13246 9.2906,1.13006 4.13157,1.65739 6.20769,1.49202 9.4868,-0.75563 l 2.77188,-1.89997 3.26292,0.64208 3.26293,0.64209 -3.46918,3.05287 c -1.90803,1.67908 -3.74189,3.14524 -4.07523,3.25813 -0.33334,0.11289 -3.92077,0.34189 -7.97208,0.50885 l -7.36602,0.3036 -2.96651,-1.45033 z M 367.87508,578.62372 c -2.77195,-0.55754 -4.86544,-1.21969 -4.65222,-1.47144 0.21323,-0.25176 0.59648,-0.41666 0.85169,-0.36644 0.25519,0.0502 2.3487,-0.20481 4.65222,-0.56673 2.30352,-0.36193 4.59591,-0.66049 5.09419,-0.66349 1.21545,-0.007 4.37165,3.05909 3.75499,3.64813 -0.76399,0.72978 -4.21452,0.52347 -9.70087,-0.58003 z m 113.97948,-4.46489 c 0,-1.47977 11.13906,-4.06943 19.05311,-4.42956 6.52195,-0.29677 10.57349,0.58939 12.44072,2.72103 0.65233,0.74471 1.07311,1.41414 0.93506,1.48761 -0.53477,0.28459 -32.42889,0.50188 -32.42889,0.22092 z m 253.25669,97.09786 c 2.62789,-0.94599 8.81852,-4.573 8.81852,-5.16667 0,-0.20103 0.67473,-0.36552 1.49941,-0.36552 1.90935,0 10.4872,-4.03674 13.91434,-6.54811 5.02851,-3.68484 6.82984,-7.73417 4.67966,-10.52001 -0.77816,-1.0083 -1.75574,-1.16772 -12.98745,-2.11798 -12.35963,-1.04568 -20.9915,-2.10248 -21.9906,-2.6923 -0.30479,-0.17992 2.72687,-6.39603 6.73697,-13.81356 4.01013,-7.41754 7.22218,-13.52534 7.13791,-13.57288 -0.55191,-0.31123 -14.62184,-3.45368 -14.85002,-3.31666 -0.15622,0.0938 -1.92963,4.29018 -3.94093,9.3253 -2.01129,5.03511 -3.95099,9.46372 -4.31044,9.84135 -0.36882,0.38747 -0.66382,-4.20043 -0.67712,-10.5305 l -0.0236,-11.2171 -6.78449,0.30598 c -3.73147,0.16829 -7.33014,0.32391 -7.99704,0.34584 -0.79077,0.0261 -3.48056,2.91846 -7.73305,8.31572 -3.58626,4.55172 -6.6416,8.06138 -6.78964,7.79922 -0.14801,-0.26215 0.82027,-3.28903 2.15176,-6.72638 1.33149,-3.43735 2.26447,-6.34206 2.07328,-6.45493 -0.19116,-0.11286 -4.74515,0.96432 -10.11994,2.39373 -6.59615,1.75422 -9.78909,2.84224 -9.82381,3.34753 -0.0282,0.41172 -0.15917,1.98448 -0.29084,3.49501 -0.13167,1.51054 -0.49741,5.96167 -0.81275,9.89141 l -0.57335,7.14498 12.68859,-1.26578 12.68859,-1.26576 3.87686,1.88657 c 2.13226,1.03763 5.56202,2.7176 7.62169,3.73329 l 3.74482,1.8467 -0.47103,5.72171 c -0.49725,6.04038 -0.0583,7.69765 3.37805,12.75432 4.77818,7.03116 12.2352,9.92028 19.16564,7.42548 z m -341.998,-32.42427 3.58182,-2.17426 -0.45021,-3.03556 c -0.79091,-5.3328 -5.46008,-12.52298 -11.51449,-17.73149 -3.34438,-2.87711 -11.84366,-8.08252 -17.08314,-10.46261 -4.29482,-1.95097 -4.61902,-2.01978 -6.89467,-1.46331 -6.4792,1.58435 -9.2752,4.20436 -9.25129,8.66899 0.0304,5.6735 5.76731,13.55135 17.18426,23.59711 l 5.42721,4.77538 7.70934,0 7.70934,0 3.58183,-2.17425 z m -15.34245,-10.9012 c -3.79193,-1.21463 -5.6812,-4.8716 -3.66548,-7.0951 1.12754,-1.24374 3.0401,-1.10418 6.71151,0.48975 3.04573,1.32229 5.66714,3.72027 5.66714,5.18412 0,1.9466 -4.68651,2.71104 -8.71317,1.42123 z m -19.14959,7.46816 c -10.21368,-13.07154 -14.17959,-24.19925 -10.95964,-30.75103 1.51764,-3.08803 5.71938,-5.50265 11.2171,-6.44617 4.23118,-0.72615 4.25757,-0.72442 7.59039,0.49651 16.01589,5.86715 25.94787,14.42277 32.37589,27.88924 l 2.18493,4.57739 0.58165,-5.45335 c 0.60527,-5.67479 0.14935,-11.04209 -1.28056,-15.07527 -1.69358,-4.77685 -3.32521,-6.13632 -15.15004,-12.62287 l -11.20214,-6.14497 -28.83291,-1.27381 c -15.85812,-0.7006 -29.26908,-1.28258 -29.80214,-1.29328 -1.36065,-0.0273 -1.26288,5.52613 0.19041,10.81594 4.31104,15.69175 17.74038,27.83225 41.09807,37.15378 2.55871,1.02112 4.7169,1.86731 4.79596,1.88042 0.0791,0.013 -1.18408,-1.67555 -2.80697,-3.75253 z m 178.20199,-2.05981 c -10.15165,-9.16775 -15.60666,-19.05141 -14.29432,-25.89918 0.88833,-4.63532 3.21512,-7.52891 8.62375,-10.72447 5.96586,-3.52478 13.01187,-5.60636 24.81206,-7.33013 l 8.42913,-1.23133 -4.24569,-0.56477 c -10.84831,-1.44306 -24.60456,-1.18624 -42.67796,0.79675 -8.45055,0.92719 -27.82625,3.94708 -28.79894,4.48859 -0.30213,0.16821 -1.79717,3.48907 -3.3223,7.37971 -1.52513,3.89064 -3.13462,7.20583 -3.57664,7.3671 -1.03803,0.37872 0.3341,7.91383 2.07836,11.41342 2.85254,5.7232 9.99267,11.8509 17.28536,14.83441 3.12017,1.27651 7.78582,1.63723 38.27414,2.95921 1.0205,0.0442 0.40183,-0.79022 -2.58695,-3.48931 z m 26.83294,1.91585 c 4.47869,-1.25308 13.56898,-5.46859 13.56898,-6.29244 0,-0.30728 -1.58405,-7.86063 -3.52011,-16.78522 -2.51753,-11.60499 -3.8583,-16.44713 -4.70751,-17.0011 -2.26045,-1.47455 -8.8158,-2.80857 -12.22146,-2.48707 -8.20924,0.77495 -16.95364,6.78622 -22.94437,15.77292 -1.50175,2.25276 -1.57205,2.78217 -0.79027,5.95059 1.28512,5.20832 4.29391,11.56754 6.9337,14.65469 6.23616,7.293 13.21385,9.11621 23.68104,6.18763 z m -0.15318,-13.02138 c -3.26565,-0.77638 -4.26317,-6.37216 -1.38711,-7.78126 1.94884,-0.95483 4.83486,-0.12505 6.93971,1.99526 4.25751,4.2888 1.26521,7.40688 -5.5526,5.786 z m 121.80498,-9.35708 c 13.47971,-3.86834 23.34143,-10.83703 27.25852,-19.26194 0.69827,-1.50184 1.45481,-5.31182 1.68119,-8.46663 l 0.41162,-5.73602 -2.51459,-2.96099 c -3.52716,-4.15332 -9.68279,-8.93153 -14.2547,-11.06497 -3.27134,-1.52655 -11.33408,-4.3134 -11.33921,-3.91936 -7.8e-4,0.0672 -0.69639,7.1166 -1.54559,15.66539 -1.0009,10.07594 -1.27858,15.69991 -0.78946,15.98866 0.48913,0.28876 2.66051,-1.91813 6.17313,-6.27404 2.98024,-3.69572 5.62198,-6.71949 5.87053,-6.71949 0.92719,0 2.6989,3.23669 2.6989,4.93054 0,3.41153 -6.90729,9.25933 -10.9369,9.25933 -0.70353,0 -1.68039,0.28542 -2.17081,0.63427 -0.65469,0.46569 -7.82729,18.1845 -7.82729,19.33613 0,0.46619 2.28779,0.0231 7.28466,-1.41088 z m -191.56118,-60.67139 16.46251,-4.11963 11.79755,0 c 6.48866,0 11.79755,-0.13298 11.79755,-0.29552 0,-0.66271 -37.51215,-43.16834 -37.89667,-42.94135 -0.22907,0.13524 -4.49405,11.20624 -9.47775,24.60224 -4.98371,13.39599 -9.31099,24.9228 -9.61619,25.61513 -0.3052,0.69233 -0.32419,1.25878 -0.0422,1.25878 0.28199,0 7.92084,-1.85384 16.97522,-4.11965 z m -87.55471,-65.96196 c 9.41711,-1.53681 17.24762,-2.86401 17.40112,-2.94934 0.39037,-0.21701 -8.72006,-21.26279 -9.19586,-21.24313 -0.21322,0.009 -6.49372,4.85745 -13.95667,10.77473 -9.29177,7.36736 -13.94736,10.70144 -14.76935,10.57704 -0.6602,-0.0999 -8.59805,-3.09796 -17.63967,-6.66233 -9.04163,-3.56435 -16.44746,-6.32378 -16.4574,-6.13203 -0.0101,0.19174 -1.02323,4.05628 -2.25173,8.58788 -1.22849,4.53161 -2.06401,8.34228 -1.85671,8.46815 0.20731,0.12588 9.15844,0.45413 19.8914,0.72945 10.73296,0.27532 20.00911,0.5328 20.61367,0.57216 0.60456,0.0394 8.8041,-1.18578 18.2212,-2.72258 z m 354.20457,-40.24117 c 12.53433,-0.84785 19.3079,-3.1815 19.49538,-6.71668 l 0.0925,-1.74345 -17.44583,-0.29705 c -28.73467,-0.4893 -48.79367,-3.24854 -69.90566,-9.61601 -11.87293,-3.58092 -17.84162,-6.27405 -20.82228,-9.39527 -15.05482,-15.76466 -41.41318,-31.49212 -74.42598,-44.40836 -9.03713,-3.53577 -17.5728,-6.54602 -18.56147,-6.54602 -0.35468,0 -2.12742,1.44854 -3.93944,3.21898 -1.81201,1.77044 -3.45882,3.12201 -3.65959,3.00348 -0.20077,-0.11852 -1.53648,-5.70414 -2.96824,-12.41251 l -2.60322,-12.19702 -3.51517,-3.24351 c -1.93334,-1.78393 -3.35896,-3.33571 -3.16807,-3.44841 0.1909,-0.11271 2.60315,0.52717 5.36053,1.42192 l 5.01343,1.62684 0.25779,-2.99215 c 0.29901,-3.47042 0.055,-3.62183 -6.91708,-4.29172 -4.74918,-0.4563 -15.80718,0.0788 -23.81214,1.15239 -4.28642,0.57486 -4.77783,0.55571 -6.72303,-0.26198 -3.86242,-1.62363 -13.40277,-4.05174 -19.66737,-5.00555 -16.34403,-2.48842 -37.59269,-1.20434 -56.77319,3.43085 -4.06273,0.98181 -8.68282,1.73903 -11.4594,1.87816 -2.55873,0.12822 -8.58012,0.45601 -13.3809,0.72843 l -8.72865,0.4953 -0.54265,1.89037 c -0.65576,2.2845 -0.92762,1.69957 3.23253,6.95513 l 3.42432,4.32596 -2.12237,0.64792 c -3.42555,1.04576 -8.58988,4.68119 -11.0391,7.77099 -3.18347,4.01609 -4.54268,8.33237 -4.55835,14.47545 l -0.0135,5.27857 5.47929,4.49413 c 3.01362,2.47177 5.30566,4.59664 5.09341,4.72193 -0.21223,0.12529 -2.34209,-0.20427 -4.73301,-0.73236 -2.39091,-0.52811 -5.29979,-0.9602 -6.46416,-0.9602 -4.58382,0 -10.62729,3.66591 -15.46949,9.38363 -2.60153,3.07191 -7.40009,11.04581 -7.02332,11.67083 0.13412,0.2225 9.53273,-3.15194 20.8858,-7.49874 11.35308,-4.3468 21.75263,-8.17487 23.11011,-8.50682 2.14486,-0.52447 3.35122,-0.47668 9.20981,0.3649 11.78939,1.69352 21.11074,2.41572 34.655,2.68496 25.06995,0.49837 45.83867,-1.97714 69.00796,-8.22536 3.83809,-1.03504 7.10022,-1.93106 7.24916,-1.99114 0.95307,-0.38445 -1.17245,-4.14655 -3.05959,-5.4154 -1.71504,-1.15313 -2.29015,-2.03407 -2.4412,-3.73931 l -0.19762,-2.2308 3.48917,0.14125 c 5.17281,0.20943 20.66563,2.67565 24.25742,3.86144 3.26766,1.07876 5.14233,2.36733 4.22876,2.90665 -0.29446,0.17383 -1.03361,0.072 -1.64256,-0.22641 -0.86587,-0.42423 -2.0494,-0.34697 -5.43,0.35447 -5.5691,1.15553 -8.7627,2.51751 -10.15249,4.32975 -0.61138,0.79722 -7.21693,6.33445 -14.679,12.30492 l -13.5674,10.85542 2.19181,0.92136 2.19179,0.92134 4.67964,-3.07975 c 4.51825,-2.97355 5.3586,-3.2843 24.36861,-9.01105 l 19.68899,-5.93128 2.67337,0.73798 c 3.37206,0.93087 12.32597,2.4745 17.4325,3.00534 2.65173,0.27565 5.771,1.14959 9.72483,2.72465 8.89707,3.54425 24.14764,10.33246 34.05652,15.15897 10.90297,5.31071 33.03258,18.34406 38.73574,22.81362 l 4.18881,3.28277 10.52176,1.1794 c 26.28255,2.94605 44.45972,3.89375 57.61574,3.00386 z M 457.9413,383.98898 c -3.55709,-0.59241 -6.64088,-1.1795 -6.85286,-1.30464 -0.43184,-0.25493 3.40431,-4.28335 4.43809,-4.66052 0.36465,-0.13305 1.03741,0.17111 1.49503,0.6759 0.45763,0.50479 1.50574,1.13065 2.32914,1.39081 2.11988,0.66976 7.30233,-0.62397 8.44853,-2.10907 l 0.88731,-1.14965 2.03635,0.94561 c 2.30501,1.07037 8.64237,1.31659 10.20122,0.39633 0.51175,-0.30211 0.93045,-1.27777 0.93045,-2.16815 l 0,-1.61885 2.71379,2.37896 c 1.49259,1.30842 2.70339,2.54156 2.69066,2.7403 -0.0127,0.19876 -1.32116,1.24246 -2.90764,2.31936 l -2.8845,1.95799 -4.49119,-0.53743 c -4.37178,-0.52313 -4.54813,-0.50522 -6.63307,0.67401 -2.57906,1.45867 -4.00944,1.46664 -12.40131,0.069 z M 422.15102,368.6935 c 0,-0.74788 4.60314,-2.72652 9.6529,-4.14927 8.77508,-2.47236 16.26174,-2.78046 19.83316,-0.81621 1.34378,0.73907 1.48178,1.01087 0.64861,1.27768 -1.06747,0.34185 -28.01124,4.10484 -29.39151,4.10484 -0.40874,0 -0.74316,-0.18766 -0.74316,-0.41704 z m 82.60168,-4.90079 c -7.42144,-0.79076 -10.09579,-1.64815 -8.98,-2.87895 1.09493,-1.20778 6.55284,-1.87344 15.36087,-1.87344 8.97758,0 14.67678,0.85036 18.21798,2.71826 2.12502,1.12089 2.31961,1.39923 1.42377,2.03647 -0.85659,0.60932 -2.67863,0.73096 -10.44102,0.69705 -5.17185,-0.0225 -12.18356,-0.33732 -15.5816,-0.69939 z"
       id="path3347"
       inkscape:connector-curvature="0" />
  </g>
</svg>
